<?xml version="1.0" encoding="UTF-8"?>
<svg width="102px" height="98px" viewBox="0 0 102 98" version="1.1" xmlns="http://www.w3.org/2000/svg" xmlns:xlink="http://www.w3.org/1999/xlink">
    <!-- Generator: Sketch 53.2 (72643) - https://sketchapp.com -->
    <title>Icon_Dashboard-bis</title>
    <desc>Created with Sketch.</desc>
    <defs>
        <linearGradient x1="50%" y1="0%" x2="50%" y2="100%" id="linearGradient-1">
            <stop stop-color="#02C3CD" offset="0%"></stop>
            <stop stop-color="#01909E" offset="100%"></stop>
        </linearGradient>
    </defs>
    <g id="Page-1" stroke="none" stroke-width="1" fill="none" fill-rule="evenodd">
        <g id="Gobierto-Contratos-Proto-v2" transform="translate(-1112.000000, -6100.000000)" fill="url(#linearGradient-1)">
            <path d="M1206.1875,6170.7931 L1164.04219,6170.7931 C1164.81844,6170.7931 1165.44844,6171.42507 1165.44844,6172.2069 C1165.44844,6172.98872 1164.81844,6173.62069 1164.04219,6173.62069 C1163.26453,6173.62069 1162.62891,6172.98872 1162.62891,6172.2069 C1162.62891,6171.42507 1163.25047,6170.7931 1164.02672,6170.7931 L1121.8125,6170.7931 L1121.8125,6172.2069 C1121.8125,6172.98731 1122.4425,6173.62069 1123.21875,6173.62069 L1154.10895,6173.62069 C1154.1379,6173.61978 1154.167,6173.61977 1154.19619,6173.62069 L1173.80048,6173.62069 C1173.83134,6173.61966 1173.86208,6173.61967 1173.89268,6173.62069 L1204.78125,6173.62069 C1205.5575,6173.62069 1206.1875,6172.98731 1206.1875,6172.2069 L1206.1875,6170.7931 Z M1206.1875,6167.96552 L1206.1875,6114.24138 C1206.1875,6113.46238 1205.5575,6112.82759 1204.78125,6112.82759 L1123.21875,6112.82759 C1122.4425,6112.82759 1121.8125,6113.46238 1121.8125,6114.24138 L1121.8125,6167.96552 L1206.1875,6167.96552 Z M1175.64445,6176.44828 L1177.75383,6184.93103 L1179.46875,6184.93103 C1181.79469,6184.93103 1183.6875,6186.834 1183.6875,6189.17241 L1183.6875,6190.58621 C1183.6875,6191.36803 1183.05891,6192 1182.28125,6192 L1145.71875,6192 C1144.94109,6192 1144.3125,6191.36803 1144.3125,6190.58621 C1144.3125,6189.80438 1144.94109,6189.17241 1145.71875,6189.17241 L1180.875,6189.17241 C1180.875,6188.392 1180.245,6187.75862 1179.46875,6187.75862 L1148.53125,6187.75862 C1147.755,6187.75862 1147.125,6188.392 1147.125,6189.17241 C1147.125,6188.39059 1146.49641,6187.75862 1145.71875,6187.75862 C1144.94109,6187.75862 1144.3125,6188.39059 1144.3125,6189.17241 C1144.3125,6186.834 1146.20531,6184.93103 1148.53125,6184.93103 L1150.24617,6184.93103 L1152.35555,6176.44828 L1123.21875,6176.44828 C1120.89281,6176.44828 1119,6174.54531 1119,6172.2069 L1119,6114.24138 C1119,6111.90297 1120.89281,6110 1123.21875,6110 L1204.78125,6110 C1207.10719,6110 1209,6111.90297 1209,6114.24138 L1209,6172.2069 C1209,6174.54531 1207.10719,6176.44828 1204.78125,6176.44828 L1175.64445,6176.44828 Z M1172.74617,6176.44828 L1155.25383,6176.44828 L1153.14445,6184.93103 L1174.85555,6184.93103 L1172.74617,6176.44828 Z M1136.41374,6145.38568 C1138.57972,6147.1288 1141.32568,6148.17241 1144.30969,6148.17241 C1151.28891,6148.17241 1156.96594,6142.46352 1156.96594,6135.44828 C1156.96594,6128.91074 1152.03574,6123.50769 1145.71594,6122.80216 L1145.71594,6131.44923 C1147.35275,6132.03285 1148.52844,6133.60533 1148.52844,6135.44828 C1148.52844,6137.78669 1146.63563,6139.68966 1144.30969,6139.68966 C1143.65915,6139.68966 1143.04248,6139.54079 1142.49164,6139.27518 L1136.41374,6145.38568 Z M1134.42532,6143.38656 L1140.50321,6137.27607 C1140.23901,6136.72228 1140.09094,6136.10231 1140.09094,6135.44828 C1140.09094,6133.60533 1141.26662,6132.03285 1142.90344,6131.44923 L1142.90344,6122.80216 C1136.58364,6123.50769 1131.65344,6128.91074 1131.65344,6135.44828 C1131.65344,6138.44795 1132.69141,6141.20877 1134.42532,6143.38656 Z M1133.46781,6146.53022 C1133.43532,6146.50295 1133.40377,6146.474 1133.37328,6146.44334 C1133.34271,6146.41261 1133.31383,6146.38081 1133.28666,6146.34808 C1130.53865,6143.53957 1128.84094,6139.68933 1128.84094,6135.44828 C1128.84094,6126.87362 1135.78078,6119.89655 1144.30969,6119.89655 C1152.83859,6119.89655 1159.77844,6126.87362 1159.77844,6135.44828 C1159.77844,6144.02293 1152.83859,6151 1144.30969,6151 C1140.09115,6151 1136.26136,6149.29309 1133.46781,6146.53022 Z M1185.09094,6148.17241 L1185.09094,6142.51724 C1185.09094,6141.73683 1185.71953,6141.10345 1186.49719,6141.10345 C1187.27484,6141.10345 1187.90344,6141.73683 1187.90344,6142.51724 L1187.90344,6148.17241 L1190.71594,6148.17241 L1190.71594,6135.44828 C1190.71594,6134.66786 1191.34453,6134.03448 1192.12219,6134.03448 C1192.89984,6134.03448 1193.52844,6134.66786 1193.52844,6135.44828 L1193.52844,6148.17241 L1197.75281,6148.17241 C1198.53047,6148.17241 1199.15906,6148.80579 1199.15906,6149.58621 C1199.15906,6150.36662 1198.53047,6151 1197.75281,6151 L1169.62781,6151 C1168.85016,6151 1168.22156,6150.36662 1168.22156,6149.58621 L1168.22156,6121.31034 C1168.22156,6120.52993 1168.85016,6119.89655 1169.62781,6119.89655 C1170.40547,6119.89655 1171.03406,6120.52993 1171.03406,6121.31034 L1171.03406,6148.17241 L1173.84094,6148.17241 L1173.84094,6139.68966 C1173.84094,6138.90924 1174.46953,6138.27586 1175.24719,6138.27586 C1176.02484,6138.27586 1176.65344,6138.90924 1176.65344,6139.68966 L1176.65344,6148.17241 L1179.47156,6148.17241 L1179.47156,6131.2069 C1179.47156,6130.42648 1180.10016,6129.7931 1180.87781,6129.7931 C1181.65547,6129.7931 1182.28406,6130.42648 1182.28406,6131.2069 L1182.28406,6148.17241 L1185.09094,6148.17241 Z M1144.30969,6134.03448 C1143.53344,6134.03448 1142.90344,6134.66928 1142.90344,6135.44828 C1142.90344,6136.22728 1143.53344,6136.86207 1144.30969,6136.86207 C1145.08594,6136.86207 1145.71594,6136.22728 1145.71594,6135.44828 C1145.71594,6134.66928 1145.08594,6134.03448 1144.30969,6134.03448 Z M1197.74719,6156.65517 L1169.62781,6156.65517 C1168.85016,6156.65517 1168.22156,6156.02321 1168.22156,6155.24138 C1168.22156,6154.45955 1168.85016,6153.82759 1169.62781,6153.82759 L1197.74719,6153.82759 C1198.52484,6153.82759 1199.15344,6154.45955 1199.15344,6155.24138 C1199.15344,6156.02321 1198.52484,6156.65517 1197.74719,6156.65517 Z M1189.30969,6160.89655 L1178.05969,6160.89655 C1177.28203,6160.89655 1176.65344,6160.26459 1176.65344,6159.48276 C1176.65344,6158.70093 1177.28203,6158.06897 1178.05969,6158.06897 L1189.30969,6158.06897 C1190.08734,6158.06897 1190.71594,6158.70093 1190.71594,6159.48276 C1190.71594,6160.26459 1190.08734,6160.89655 1189.30969,6160.89655 Z M1158.36937,6156.65517 L1131.65625,6156.65517 C1130.87859,6156.65517 1130.25,6156.02321 1130.25,6155.24138 C1130.25,6154.45955 1130.87859,6153.82759 1131.65625,6153.82759 L1158.36937,6153.82759 C1159.14703,6153.82759 1159.77562,6154.45955 1159.77562,6155.24138 C1159.77562,6156.02321 1159.14703,6156.65517 1158.36937,6156.65517 Z M1151.33813,6160.89655 L1140.08813,6160.89655 C1139.31047,6160.89655 1138.68188,6160.26459 1138.68188,6159.48276 C1138.68188,6158.70093 1139.31047,6158.06897 1140.08813,6158.06897 L1151.33813,6158.06897 C1152.11578,6158.06897 1152.74438,6158.70093 1152.74438,6159.48276 C1152.74438,6160.26459 1152.11578,6160.89655 1151.33813,6160.89655 Z" id="Combined-Shape"></path>
        </g>
    </g>
</svg>