<?xml version="1.0" encoding="UTF-8"?>
<svg width="102px" height="98px" viewBox="0 0 102 98" version="1.1" xmlns="http://www.w3.org/2000/svg" xmlns:xlink="http://www.w3.org/1999/xlink">
    <!-- Generator: Sketch 53.2 (72643) - https://sketchapp.com -->
    <title>Icon_Paper-graph</title>
    <desc>Created with Sketch.</desc>
    <defs>
        <linearGradient x1="50%" y1="0%" x2="50%" y2="100%" id="linearGradient-1">
            <stop stop-color="#02C3CD" offset="0%"></stop>
            <stop stop-color="#01909E" offset="100%"></stop>
        </linearGradient>
    </defs>
    <g id="Page-1" stroke="none" stroke-width="1" fill="none" fill-rule="evenodd">
        <g id="Gobierto-Contratos-Proto-v2" transform="translate(-219.000000, -6100.000000)" fill="url(#linearGradient-1)" fill-rule="nonzero">
            <g id="noun_report_1610529" transform="translate(236.000000, 6108.000000)">
                <path d="M1.8125,0.0022 C0.78178793,0.0993390594 -0.00446525743,0.966907094 -2.04724963e-13,2.00215 L-2.04724963e-13,13.00186 C-0.0101980047,13.7231113 0.368753738,14.393982 0.991747786,14.7575836 C1.61474183,15.1211852 2.38525817,15.1211852 3.00825221,14.7575836 C3.63124626,14.393982 4.010198,13.7231113 4,13.00186 L4,4.00209 L34,4.00209 L34,18.00173 C34.0001146,19.1062219 34.8954792,20.0015596 36,20.00167 L50,20.00167 L50,50.00092 L46,50.00092 C45.9375344,49.9979891 45.8749656,49.9979891 45.8125,50.00092 C44.7818071,50.0980574 43.9955607,50.9655963 44,52.00082 L44,52.25082 C43.6942328,52.0815555 43.3494506,51.9953599 43,52.00082 L11,52.00082 C10.9375344,51.9978891 10.8749656,51.9978891 10.8125,52.00082 C10.097968,52.0343128 9.45558178,52.4464497 9.12732211,53.0819827 C8.79906244,53.7175158 8.83479974,54.4798925 9.22107211,55.0819328 C9.60734449,55.6839731 10.285468,56.0342128 11,56.00072 L43,56.00072 C43.3494506,56.0061801 43.6942328,55.9199845 44,55.75072 L44,61.25062 C43.6942328,61.0813555 43.3494506,60.9951599 43,61.00062 L40,61.00062 L40,60.00062 C39.9998632,58.8961438 39.1045051,58.0008304 38,58.00072 L30,58.00072 C28.8954949,58.0008304 28.0001368,58.8961438 28,60.00062 L28,61.00062 L11,61.00062 C10.9375344,60.9976891 10.8749656,60.9976891 10.8125,61.00062 C10.097968,61.0341128 9.45558178,61.4462497 9.12732211,62.0817827 C8.79906244,62.7173158 8.83479974,63.4796925 9.22107211,64.0817328 C9.60734449,64.6837731 10.285468,65.0340128 11,65.00052 L28,65.00052 L28,70.00032 L4,70.00032 L4,21.00165 C4.01240851,20.4256722 3.77585044,19.8723148 3.35090832,19.4832929 C2.9259662,19.094271 2.35391242,18.907368 1.78125,18.97045 C0.750856552,19.0836772 -0.0222959874,19.9653207 -2.04724963e-13,21.00165 L-2.04724963e-13,72.00032 C0.000136722132,73.1047963 0.895494852,74.0001096 2,74.00022 L28,74.00022 L28,82.00002 C28.0000816,83.1045353 28.8954558,83.9999096 30,84.00002 L70,84.00002 C71.1045442,83.9999096 71.9999184,83.1045353 72,82.00002 L72,44.00102 C71.9998632,42.8965438 71.1045051,42.0012304 70,42.00112 L62,42.00112 C61.9375344,41.9981891 61.8749656,41.9981891 61.8125,42.00112 C60.7818071,42.0982574 59.9955607,42.9657963 60,44.00102 L60,80.00012 L56,80.00012 L56,52.00082 C55.9998632,50.8963438 55.1045051,50.0010304 54,50.00092 L54,18.00173 C54.0041103,17.4620972 53.7899855,16.9437007 53.40625,16.56426 L37.40625,0.56468 C37.0293542,0.200107333 36.5243605,-0.00188298899 36,0.0022 L2,0.0022 C1.93753436,-0.000730928681 1.87496564,-0.000730928681 1.8125,0.0022 Z M38,6.81452 L47.1875,16.00178 L38,16.00178 L38,6.81452 Z M10.8125,34.00131 C10.0971332,34.0336659 9.45351173,34.4456024 9.12454556,35.0816501 C8.79557938,35.7176979 8.83136041,36.4810054 9.21838447,37.0834919 C9.60540853,37.6859785 10.2847432,38.035903 11,38.0012 L43,38.0012 C43.7213146,38.0114672 44.3922743,37.6325412 44.7559281,37.0095358 C45.119582,36.3865303 45.119582,35.6159797 44.7559281,34.9929742 C44.3922743,34.3699688 43.7213146,33.9910428 43,34.00131 L11,34.00131 C10.9375344,33.9983791 10.8749656,33.9983791 10.8125,34.00131 L10.8125,34.00131 Z M10.8125,43.00112 C10.0944665,43.0298149 9.44687924,43.4410977 9.11564312,44.0787943 C8.784407,44.7164909 8.82032895,45.4827876 9.20976852,46.0867026 C9.59920809,46.6906175 10.2824307,47.0395188 11,47.00092 L43,47.00092 C43.7220146,47.0122815 44.3940992,46.633607 44.7584263,46.0101652 C45.1227533,45.3867234 45.1227533,44.6153166 44.7584263,43.9918748 C44.3940992,43.368433 43.7220146,42.9897585 43,43.00112 L11,43.00112 C10.9375344,42.9981891 10.8749656,42.9981891 10.8125,43.00112 L10.8125,43.00112 Z M64,46.00102 L68,46.00102 L68,80.00012 L64,80.00012 L64,46.00102 Z M48,54.00082 L52,54.00082 L52,80.00012 L48,80.00012 L48,54.00082 Z M32,62.00062 L36,62.00062 L36,80.00012 L32,80.00012 L32,62.00062 L32,62.00062 Z M44,64.75052 L44,80.00012 L40,80.00012 L40,65.00052 L43,65.00052 C43.3494506,65.0059801 43.6942328,64.9197845 44,64.75052 L44,64.75052 Z" id="Shape"></path>
            </g>
        </g>
    </g>
</svg>