<?xml version="1.0" encoding="UTF-8"?>
<svg width="102px" height="98px" viewBox="0 0 102 98" version="1.1" xmlns="http://www.w3.org/2000/svg" xmlns:xlink="http://www.w3.org/1999/xlink">
    <!-- Generator: Sketch 53.2 (72643) - https://sketchapp.com -->
    <title>Icon_Contract</title>
    <desc>Created with Sketch.</desc>
    <defs>
        <linearGradient x1="50%" y1="-2.48949813e-15%" x2="50%" y2="92.6351337%" id="linearGradient-1">
            <stop stop-color="#02C3CD" offset="0%"></stop>
            <stop stop-color="#01909E" offset="100%"></stop>
        </linearGradient>
    </defs>
    <g id="Page-1" stroke="none" stroke-width="1" fill="none" fill-rule="evenodd">
        <g id="Gobierto-Contratos-Proto-v2" transform="translate(-215.000000, -4330.000000)" fill="url(#linearGradient-1)" fill-rule="nonzero">
            <g id="noun_contract_2092552" transform="translate(235.000000, 4340.357813)">
                <g id="Group" transform="translate(0.000000, 0.900000)">
                    <path d="M1.31372549,69.9344262 C0.590227947,69.9315733 0.00524911391,69.3525801 0.00525490196,68.6393443 L0.00525490196,14.2433115 C0.00525490196,14.2161148 0.0210196078,14.1928033 0.0210196078,14.1643115 C0.0287931216,14.0472736 0.0526583761,13.9318191 0.0919607843,13.8211148 C0.104237373,13.7798145 0.11870833,13.7391792 0.135313725,13.699377 C0.197023425,13.5639311 0.281900784,13.4399551 0.386235294,13.3328689 L0.386235294,13.3263934 L13.5234902,0.37557377 C13.6318252,0.273304038 13.7571265,0.190079268 13.8939608,0.129508197 C13.9369196,0.112150195 13.9807704,0.0970202178 14.0253333,0.0841803279 C14.1363881,0.046272245 14.2522067,0.0236115565 14.3695294,0.0168360656 C14.3984314,0.0142459016 14.4220784,3.55271368e-14 14.4509804,3.55271368e-14 L51.2352941,3.55271368e-14 C51.9608447,3.55271368e-14 52.5490196,0.579827947 52.5490196,1.29508197 L52.5490196,44.0884754 L53.7392549,41.7948852 L54.9413137,39.4922295 C55.7866045,37.8227409 57.4773336,36.730378 59.3674871,36.6325238 C61.2576405,36.5346697 63.0551336,37.4464456 64.0731587,39.0194694 C65.0911839,40.5924933 65.172426,42.5836862 64.2858431,44.2322295 L63.6854706,45.3835574 L64.8546863,45.9754098 C65.7852178,46.4457244 66.4880035,47.2613183 66.8083179,48.2426302 C67.1286322,49.2239421 67.040214,50.2905182 66.5625294,51.207541 L63.5567255,56.9667705 C63.3971611,57.2724732 63.1208419,57.5030857 62.7886604,57.6077879 C62.4564789,57.71249 62.0956982,57.6826885 61.7858235,57.5249508 C61.1415496,57.1974069 60.8881617,56.417314 61.2196078,55.7817705 L64.2267255,50.0290164 C64.5579775,49.3931293 64.303962,48.6129148 63.6591961,48.2858361 L62.4912941,47.6926885 L55.2789412,61.5112131 L51.7450196,68.2806066 L50.5482157,73.3223607 C50.4541959,73.7158633 50.1791688,74.0435114 49.8046471,74.2081967 L42.1259216,77.5948361 C41.7616627,77.7552196 41.3432112,77.7437442 40.9885603,77.5636456 C40.6339094,77.3835471 40.3814872,77.0543398 40.3024706,76.6688525 L38.9204314,69.9344262 L1.31372549,69.9344262 Z M48.1388431,72.1010984 L48.991451,68.5072459 L47.5660588,67.7845902 L46.364,70.0872459 C46.1593516,70.5157977 45.7337037,70.8000262 45.2540839,70.8283978 C44.7744641,70.8567693 44.3173929,70.6247574 44.0622285,70.2234054 C43.8070642,69.8220535 43.7945167,69.3153946 44.0295098,68.9022459 L45.2315686,66.5995902 L43.8061765,65.8769344 L41.339,68.6484098 L42.5528824,74.5617541 L48.1388431,72.1010984 Z M49.9373333,66.0789672 L52.3440784,61.4736557 L47.6711569,59.1036557 L45.2670392,63.7102623 L47.6028431,64.8952623 L49.9373333,66.0789672 Z M57.285,40.6772295 L56.6846275,41.8311475 L61.3562353,44.1985574 L61.9566078,43.0472295 C62.4079169,42.222252 62.3719073,41.2212795 61.8624501,40.4298911 C61.3529929,39.6385027 60.4495823,39.1801845 59.5002162,39.2314827 C58.5508501,39.2827808 57.7036648,39.8356909 57.285,40.6772295 Z M55.4825686,44.1312131 L48.8705882,56.7997049 L53.5435098,59.1697049 L60.1541765,46.5012131 L55.4825686,44.1312131 Z M13.1372549,4.42140984 L4.48505882,12.9508197 L13.1372549,12.9508197 L13.1372549,4.42140984 Z M2.62745098,15.5409836 L2.62745098,67.3442623 L39.008451,67.3442623 L42.4004902,63.5341311 L49.9215686,49.122459 L49.9215686,2.59016393 L15.7647059,2.59016393 L15.7647059,14.2459016 C15.7647059,14.9611557 15.1765309,15.5409836 14.4509804,15.5409836 L2.62745098,15.5409836 Z M9.19607843,20.7213115 C8.47052788,20.7213115 7.88235294,20.1414835 7.88235294,19.4262295 C7.88235294,18.7109755 8.47052788,18.1311475 9.19607843,18.1311475 L43.3529412,18.1311475 C44.0784917,18.1311475 44.6666667,18.7109755 44.6666667,19.4262295 C44.6666667,20.1414835 44.0784917,20.7213115 43.3529412,20.7213115 L9.19607843,20.7213115 Z M9.19607843,28.4918033 C8.47052788,28.4918033 7.88235294,27.9119753 7.88235294,27.1967213 C7.88235294,26.4814673 8.47052788,25.9016393 9.19607843,25.9016393 L43.3529412,25.9016393 C44.0784917,25.9016393 44.6666667,26.4814673 44.6666667,27.1967213 C44.6666667,27.9119753 44.0784917,28.4918033 43.3529412,28.4918033 L9.19607843,28.4918033 Z M9.19607843,34.9672131 C8.47052788,34.9672131 7.88235294,34.3873852 7.88235294,33.6721311 C7.88235294,32.9568771 8.47052788,32.3770492 9.19607843,32.3770492 L43.3529412,32.3770492 C44.0784917,32.3770492 44.6666667,32.9568771 44.6666667,33.6721311 C44.6666667,34.3873852 44.0784917,34.9672131 43.3529412,34.9672131 L9.19607843,34.9672131 Z M44.6666667,41.442623 C44.6666667,42.157877 44.0784917,42.7377049 43.3529412,42.7377049 L9.19607843,42.7377049 C8.47052788,42.7377049 7.88235294,42.157877 7.88235294,41.442623 C7.88235294,40.7273689 8.47052788,40.147541 9.19607843,40.147541 L43.3529412,40.147541 C44.0784917,40.147541 44.6666667,40.7273689 44.6666667,41.442623 Z M40.7254902,60.8688525 C40.7254902,61.5841065 40.1373153,62.1639344 39.4117647,62.1639344 L24.9607843,62.1639344 C24.2352338,62.1639344 23.6470588,61.5841065 23.6470588,60.8688525 C23.6470588,60.1535984 24.2352338,59.5737705 24.9607843,59.5737705 L39.4117647,59.5737705 C40.1373153,59.5737705 40.7254902,60.1535984 40.7254902,60.8688525 Z M42.3019608,49.7311475 C42.7372911,49.1589443 43.560736,49.0429787 44.1411765,49.4721311 C44.7216169,49.9012836 44.8392519,50.7130427 44.4039216,51.2852459 L42.0392157,54.3934426 C40.7953217,56.0199912 38.8506212,56.9785426 36.7843137,56.9836066 C36.3285744,56.9840409 35.9051653,56.7516012 35.6655521,56.3694379 C35.4259388,55.9872745 35.4043579,55.509992 35.6085294,55.1083279 L35.9947647,54.3481148 C36.1733435,54.0201769 36.1569152,53.6224542 35.9518809,53.3099154 C35.7468466,52.9973765 35.3856414,52.819463 35.0090052,52.8454972 C34.6323691,52.8715314 34.2998835,53.0973948 34.141098,53.435082 L32.7051961,56.2674262 C32.4331762,56.8054707 31.8213338,57.088242 31.2278019,56.9502242 C30.6342699,56.8122065 30.2151163,56.289691 30.2156863,55.6885246 L30.2156863,51.8032787 C30.2156863,51.0880247 29.6275113,50.5081967 28.9019608,50.5081967 C28.1764102,50.5081967 27.5882353,51.0880247 27.5882353,51.8032787 L27.5882353,55.6885246 C27.5882353,56.4037786 27.0000604,56.9836066 26.2745098,56.9836066 C25.5489593,56.9836066 24.9607843,56.4037786 24.9607843,55.6885246 L24.9607843,51.8032787 C24.9603902,49.7988334 26.5068842,48.1230957 28.5311659,47.9345129 C30.5554476,47.7459302 32.392999,49.1064091 32.7735098,51.0754426 C33.8714531,50.2073197 35.376787,50.0359289 36.6465611,50.634474 C37.9163351,51.233019 38.7260799,52.4956896 38.7299412,53.8831803 C39.2010244,53.6209384 39.6120562,53.2655628 39.9372549,52.8393443 L42.3019608,49.7311475 Z" id="Combined-Shape"></path>
                </g>
            </g>
        </g>
    </g>
</svg>