<?xml version="1.0" encoding="UTF-8"?>
<svg width="102px" height="98px" viewBox="0 0 102 98" version="1.1" xmlns="http://www.w3.org/2000/svg" xmlns:xlink="http://www.w3.org/1999/xlink">
    <!-- Generator: Sketch 53.2 (72643) - https://sketchapp.com -->
    <title>Icon_Papers</title>
    <desc>Created with Sketch.</desc>
    <defs>
        <linearGradient x1="50%" y1="0%" x2="50%" y2="100%" id="linearGradient-1">
            <stop stop-color="#02C3CD" offset="0%"></stop>
            <stop stop-color="#01909E" offset="100%"></stop>
        </linearGradient>
    </defs>
    <g id="Page-1" stroke="none" stroke-width="1" fill="none" fill-rule="evenodd">
        <g id="Gobierto-Contratos-Proto-v2" transform="translate(-676.000000, -4330.000000)" fill="url(#linearGradient-1)">
            <g id="noun_File_1391174" transform="translate(691.000000, 4339.000000)">
                <path d="M8.19923524,36 C7.9470336,36 7.69122909,35.9193775 7.47505626,35.7520248 C6.94663378,35.3440262 6.84335121,34.5781128 7.2444719,34.0406296 L14.7660854,23.9628205 C15.1515936,23.4461038 15.8673659,23.3263916 16.3945874,23.6879712 L24.8133182,29.4671366 L35.9990612,19.3099266 C36.4938568,18.8616168 37.2540646,18.9043712 37.694817,19.4076508 C38.1367703,19.9109305 38.0935357,20.6829518 37.5987401,21.1324831 L25.7152393,31.9224574 C25.3045109,32.2950309 24.698026,32.3353422 24.2428621,32.0238462 L15.9910648,26.3582852 L9.15640049,35.5162652 C8.9210123,35.8338688 8.56192521,36 8.19923524,36 Z M23.8,63 C24.4624,63 25,63.448 25,64 C25,64.552 24.4624,65 23.8,65 L8.2,65 C7.5376,65 7,64.552 7,64 C7,63.448 7.5376,63 8.2,63 L23.8,63 Z M8.2,43 C7.5376,43 7,42.552 7,42 C7,41.448 7.5376,41 8.2,41 L17.8,41 C18.4624,41 19,41.448 19,42 C19,42.552 18.4624,43 17.8,43 L8.2,43 Z M37.7857143,41 C38.4572143,41 39,41.448 39,42 C39,42.552 38.4572143,43 37.7857143,43 L23.2142857,43 C22.544,43 22,42.552 22,42 C22,41.448 22.544,41 23.2142857,41 L37.7857143,41 Z M25.8235294,55 C26.4729412,55 27,55.448 27,56 C27,56.552 26.4729412,57 25.8235294,57 L8.17647059,57 C7.52705882,57 7,56.552 7,56 C7,55.448 7.52705882,55 8.17647059,55 L25.8235294,55 Z M36.8,48 C37.4636,48 38,48.448 38,49 C38,49.552 37.4636,50 36.8,50 L27.2,50 C26.5376,50 26,49.552 26,49 C26,48.448 26.5376,48 27.2,48 L36.8,48 Z M8.21428571,50 C7.544,50 7,49.552 7,49 C7,48.448 7.544,48 8.21428571,48 L22.7857143,48 C23.456,48 24,48.448 24,49 C24,49.552 23.456,50 22.7857143,50 L8.21428571,50 Z M45.6453158,58.5352692 L32.3295263,71.6506538 C32.2157368,71.7627308 32.0813684,71.8497692 31.9348947,71.9093846 C31.7884211,71.969 31.6322632,72 31.4736842,72 L3.63157895,72 C1.62936842,72 0,70.3951538 0,68.4230769 L0,13.5769231 C0,11.6048462 1.62936842,10 3.63157895,10 L42.3684211,10 C44.3706316,10 46,11.6048462 46,13.5769231 L46,57.6923077 C46,57.7173462 45.9866842,57.74 45.9854737,57.7662308 C45.9782105,57.8723462 45.9576316,57.9748846 45.9225263,58.0750385 C45.9092105,58.1131923 45.8995263,58.1501538 45.8825789,58.1859231 C45.8232632,58.3123077 45.7494211,58.4327308 45.6453158,58.5352692 Z M32.6842105,67.9294615 L41.8672632,58.8846154 L33.8947368,58.8846154 C33.2277368,58.8846154 32.6842105,59.4199615 32.6842105,60.0769231 L32.6842105,67.9294615 Z M2.42105263,68.4230769 C2.42105263,69.0800385 2.96457895,69.6153846 3.63157895,69.6153846 L30.2631579,69.6153846 L30.2631579,60.0769231 C30.2631579,58.1048462 31.8925263,56.5 33.8947368,56.5 L43.5789474,56.5 L43.5789474,13.5769231 C43.5789474,12.9199615 43.0366316,12.3846154 42.3684211,12.3846154 L3.63157895,12.3846154 C2.96457895,12.3846154 2.42105263,12.9199615 2.42105263,13.5769231 L2.42105263,68.4230769 Z M56.4285714,5 C58.397619,5 60,6.62018519 60,8.61111111 L60,66.3888889 C60,68.3798148 58.397619,70 56.4285714,70 L40.952381,70 C40.2940476,70 39.7619048,69.4607407 39.7619048,68.7962963 C39.7619048,68.1318519 40.2940476,67.5925926 40.952381,67.5925926 L56.4285714,67.5925926 C57.0857143,67.5925926 57.6190476,67.0521296 57.6190476,66.3888889 L57.6190476,8.61111111 C57.6190476,7.94787037 57.0857143,7.40740741 56.4285714,7.40740741 L36.1904762,7.40740741 C35.5333333,7.40740741 35,6.86814815 35,6.2037037 C35,5.53925926 35.5333333,5 36.1904762,5 L56.4285714,5 Z M68.4,0 C70.3848,0 72,1.62018519 72,3.61111111 L72,61.3888889 C72,63.3798148 70.3848,65 68.4,65 L63.6,65 C62.9364,65 62.4,64.4607407 62.4,63.7962963 C62.4,63.1318519 62.9364,62.5925926 63.6,62.5925926 L68.4,62.5925926 C69.0624,62.5925926 69.6,62.0521296 69.6,61.3888889 L69.6,3.61111111 C69.6,2.94787037 69.0624,2.40740741 68.4,2.40740741 L49.2,2.40740741 C48.5364,2.40740741 48,1.86814815 48,1.2037037 C48,0.539259259 48.5364,0 49.2,0 L68.4,0 Z" id="Combined-Shape"></path>
            </g>
        </g>
    </g>
</svg>