<?xml version="1.0" encoding="UTF-8"?>
<svg width="102px" height="98px" viewBox="0 0 102 98" version="1.1" xmlns="http://www.w3.org/2000/svg" xmlns:xlink="http://www.w3.org/1999/xlink">
    <!-- Generator: Sketch 53.2 (72643) - https://sketchapp.com -->
    <title>Icon_Dashboard</title>
    <desc>Created with Sketch.</desc>
    <defs>
        <linearGradient x1="50%" y1="-5.88194665%" x2="50%" y2="100%" id="linearGradient-1">
            <stop stop-color="#02C3CD" offset="0%"></stop>
            <stop stop-color="#01909E" offset="100%"></stop>
        </linearGradient>
        <linearGradient x1="50%" y1="-5.88194665%" x2="50%" y2="100%" id="linearGradient-2">
            <stop stop-color="#02C3CD" offset="0%"></stop>
            <stop stop-color="#01909E" offset="100%"></stop>
        </linearGradient>
    </defs>
    <g id="Page-1" stroke="none" stroke-width="1" fill="none" fill-rule="evenodd">
        <g id="Gobierto-Contratos-Proto-v2" transform="translate(-680.000000, -6100.000000)">
            <g id="noun_metrics_1820605" transform="translate(687.000000, 6109.000000)">
                <path d="M78.0881818,77.3152118 L84.9145455,77.3152118 L84.9036364,11.41866 L3.08545455,11.41866 L3.09636364,77.3152118 L11.2727273,77.3152118 L11.2727273,65.2117635 C11.2727273,64.4680738 11.8822727,63.8669359 12.6363636,63.8669359 L76.7245455,63.8669359 C77.4786364,63.8669359 78.0881818,64.4680738 78.0881818,65.2117635 L78.0881818,77.3152118 Z M75.3609091,77.3152118 L75.3609091,70.5910738 L61.7272727,70.5910738 L61.7272727,77.3152118 L75.3609091,77.3152118 Z M59,77.3152118 L59,70.5910738 L45.3663636,70.5910738 L45.3663636,77.3152118 L59,77.3152118 Z M42.6390909,77.3152118 L42.6390909,70.5910738 L29.0054545,70.5910738 L29.0054545,77.3152118 L42.6390909,77.3152118 Z M26.2781818,77.3152118 L26.2781818,70.5910738 L14,70.5910738 L14,77.3152118 L26.2781818,77.3152118 Z M5.84136364,7.72900487 C5.08727273,7.72900487 4.47090909,7.12652212 4.47090909,6.38417729 C4.47090909,5.64183246 5.07363636,5.0393497 5.82636364,5.0393497 L5.84136364,5.0393497 C6.59409091,5.0393497 7.205,5.64183246 7.205,6.38417729 C7.205,7.12652212 6.59272727,7.72900487 5.84136364,7.72900487 Z M9.93227273,7.72900487 C9.17818182,7.72900487 8.56181818,7.12652212 8.56181818,6.38417729 C8.56181818,5.64183246 9.16454545,5.0393497 9.91727273,5.0393497 L9.93227273,5.0393497 C10.685,5.0393497 11.2959091,5.64183246 11.2959091,6.38417729 C11.2959091,7.12652212 10.6836364,7.72900487 9.93227273,7.72900487 Z M14.0231818,7.72900487 C13.2690909,7.72900487 12.6527273,7.12652212 12.6527273,6.38417729 C12.6527273,5.64183246 13.2554545,5.0393497 14.0081818,5.0393497 L14.0231818,5.0393497 C14.7759091,5.0393497 15.3868182,5.64183246 15.3868182,6.38417729 C15.3868182,7.12652212 14.7745455,7.72900487 14.0231818,7.72900487 Z M86.3040909,80.0048669 C86.2986364,80.0062118 86.2877273,80.0048669 86.2768182,80.0048669 L1.73136364,80.0048669 C0.978636364,80.0048669 0.367727273,79.403729 0.367727273,78.6600394 L0.356818182,10.0738325 C0.356818182,9.71745315 0.5,9.37452212 0.756363636,9.12303936 C1.01272727,8.8715566 1.35909091,8.72900487 1.72181818,8.72900487 L86.2672727,8.72900487 C87.02,8.72900487 87.6309091,9.33148763 87.6309091,10.0738325 L87.6418182,78.3910738 C87.6595455,78.4771428 87.6690909,78.5685911 87.6690909,78.6600394 C87.6677273,79.403729 87.0581818,80.0048669 86.3040909,80.0048669 Z M64.4518182,45.0393497 L64.4518182,39.6600394 C64.4518182,38.9176945 65.0613636,38.3152118 65.8154545,38.3152118 C66.5695455,38.3152118 67.1790909,38.9176945 67.1790909,39.6600394 L67.1790909,45.0393497 L69.9063636,45.0393497 L69.9063636,32.9359014 C69.9063636,32.1935566 70.5159091,31.5910738 71.27,31.5910738 C72.0240909,31.5910738 72.6336364,32.1935566 72.6336364,32.9359014 L72.6336364,45.0393497 L76.7286364,45.0393497 C77.4827273,45.0393497 78.0922727,45.6404876 78.0922727,46.3841773 C78.0922727,47.1278669 77.4827273,47.7290049 76.7286364,47.7290049 L49.4559091,47.7290049 C48.7018182,47.7290049 48.0922727,47.1278669 48.0922727,46.3841773 L48.0922727,19.4876256 C48.0922727,18.7452807 48.7018182,18.142798 49.4559091,18.142798 C50.21,18.142798 50.8195455,18.7452807 50.8195455,19.4876256 L50.8195455,45.0393497 L53.5427273,45.0393497 L53.5427273,36.9703842 C53.5427273,36.2280394 54.1522727,35.6255566 54.9063636,35.6255566 C55.6604545,35.6255566 56.27,36.2280394 56.27,36.9703842 L56.27,45.0393497 L59.0013636,45.0393497 L59.0013636,28.9014187 C59.0013636,28.1590738 59.6109091,27.5565911 60.365,27.5565911 C61.1190909,27.5565911 61.7286364,28.1590738 61.7286364,28.9014187 L61.7286364,45.0393497 L64.4518182,45.0393497 Z M76.7245455,53.1083152 L49.4559091,53.1083152 C48.7018182,53.1083152 48.0922727,52.5071773 48.0922727,51.7634876 C48.0922727,51.019798 48.7018182,50.41866 49.4559091,50.41866 L76.7245455,50.41866 C77.4786364,50.41866 78.0881818,51.019798 78.0881818,51.7634876 C78.0881818,52.5071773 77.4786364,53.1083152 76.7245455,53.1083152 Z M68.5427273,57.142798 L57.6336364,57.142798 C56.8795455,57.142798 56.27,56.54166 56.27,55.7979704 C56.27,55.0542807 56.8795455,54.4531428 57.6336364,54.4531428 L68.5427273,54.4531428 C69.2968182,54.4531428 69.9063636,55.0542807 69.9063636,55.7979704 C69.9063636,56.54166 69.2968182,57.142798 68.5427273,57.142798 Z M17.2490271,42.3880389 C19.3494758,44.0464408 22.0124798,45.0393497 24.9063636,45.0393497 C31.6740909,45.0393497 37.1790909,39.6089359 37.1790909,32.9359014 C37.1790909,26.717266 32.3982886,21.577781 26.27,20.9066718 L26.27,29.1319318 C27.8572151,29.687083 28.9972727,31.1828538 28.9972727,32.9359014 C28.9972727,35.1602463 27.1618182,36.9703842 24.9063636,36.9703842 C24.2754972,36.9703842 23.6774899,36.8287662 23.1433164,36.5760777 L17.2490271,42.3880389 Z M15.3209934,40.4863066 L21.2151842,34.6744425 C20.959019,34.1476846 20.8154545,33.5579921 20.8154545,32.9359014 C20.8154545,31.1828538 21.9555122,29.687083 23.5427273,29.1319318 L23.5427273,20.9066718 C17.4144387,21.577781 12.6336364,26.717266 12.6336364,32.9359014 C12.6336364,35.7889513 13.6399406,38.4148523 15.3209934,40.4863066 Z M14.4002883,43.4842952 C14.3657339,43.4563263 14.332255,43.4264357 14.3,43.3946256 C14.2676343,43.3627063 14.2372333,43.3295878 14.2087969,43.2954159 C11.5491046,40.6246441 9.90636364,36.9657533 9.90636364,32.9359014 C9.90636364,24.7795221 16.6359091,18.142798 24.9063636,18.142798 C33.1768182,18.142798 39.9063636,24.7795221 39.9063636,32.9359014 C39.9063636,41.0922807 33.1768182,47.7290049 24.9063636,47.7290049 C20.8193089,47.7290049 17.1085584,46.1082553 14.4002883,43.4842952 Z M24.9063636,31.5910738 C24.1536364,31.5910738 23.5427273,32.1949014 23.5427273,32.9359014 C23.5427273,33.6769014 24.1536364,34.280729 24.9063636,34.280729 C25.6590909,34.280729 26.27,33.6769014 26.27,32.9359014 C26.27,32.1949014 25.6590909,31.5910738 24.9063636,31.5910738 Z M38.54,53.1083152 L12.635,53.1083152 C11.8809091,53.1083152 11.2713636,52.5071773 11.2713636,51.7634876 C11.2713636,51.019798 11.8809091,50.41866 12.635,50.41866 L38.54,50.41866 C39.2940909,50.41866 39.9036364,51.019798 39.9036364,51.7634876 C39.9036364,52.5071773 39.2940909,53.1083152 38.54,53.1083152 Z M31.7218182,57.142798 L20.8127273,57.142798 C20.0586364,57.142798 19.4490909,56.54166 19.4490909,55.7979704 C19.4490909,55.0542807 20.0586364,54.4531428 20.8127273,54.4531428 L31.7218182,54.4531428 C32.4759091,54.4531428 33.0854545,55.0542807 33.0854545,55.7979704 C33.0854545,56.54166 32.4759091,57.142798 31.7218182,57.142798 Z M14,67.9014187 L26.2781818,67.9014187 L26.2781818,66.5565911 L14,66.5565911 L14,67.9014187 Z M29.0054545,67.9014187 L42.6390909,67.9014187 L42.6390909,66.5565911 L29.0054545,66.5565911 L29.0054545,67.9014187 Z M45.3663636,67.9014187 L59,67.9014187 L59,66.5565911 L45.3663636,66.5565911 L45.3663636,67.9014187 Z M61.7272727,67.9014187 L75.3609091,67.9014187 L75.3609091,66.5565911 L61.7272727,66.5565911 L61.7272727,67.9014187 Z" id="Combined-Shape" fill="url(#linearGradient-1)"></path>
                <path d="M86.3040912,80.0048001 C86.2986366,80.0062959 86.2877275,80.0048001 86.2768185,80.0048001 L1.73136364,80.0048001 C0.978636366,80.0048001 0.367727273,79.336191 0.367727273,78.5090304 L0.356818182,2.2247746 C0.356818182,1.82839562 0.5,1.44697434 0.756363638,1.1672654 C1.01272727,0.887556465 1.35909091,0.729004874 1.72181819,0.729004874 L86.267273,0.729004874 C87.0200003,0.729004874 87.6309094,1.39910971 87.6309094,2.2247746 L87.6418185,78.2098764 C87.6595457,78.3056057 87.6690912,78.407318 87.6690912,78.5090304 C87.6677275,79.336191 87.0581821,80.0048001 86.3040912,80.0048001 Z M3.09636364,77.0132606 L84.9145457,77.0132606 L84.9036366,3.72054432 L3.08545455,3.72054432 L3.09636364,77.0132606 Z" id="Shape-Copy" fill="url(#linearGradient-2)" fill-rule="nonzero"></path>
            </g>
        </g>
    </g>
</svg>