<?xml version="1.0" encoding="UTF-8"?>
<svg width="567px" height="434px" viewBox="0 0 567 434" version="1.1" xmlns="http://www.w3.org/2000/svg" xmlns:xlink="http://www.w3.org/1999/xlink">
    <!-- Generator: Sketch 53.2 (72643) - https://sketchapp.com -->
    <title>Group 8</title>
    <desc>Created with Sketch.</desc>
    <g id="Page-1" stroke="none" stroke-width="1" fill="none" fill-rule="evenodd">
        <g id="Gobierto-Contratos-Proto-v2" transform="translate(-154.000000, -4697.000000)">
            <g id="Group-8" transform="translate(154.000000, 4697.000000)">
                <ellipse id="Oval-Copy-8" fill="#D5E9EB" cx="283.5" cy="273" rx="283.5" ry="161"></ellipse>
                <g id="Group-14" transform="translate(90.000000, 0.000000)">
                    <g id="Group-17-Copy-2" transform="translate(194.510695, 293.466472) scale(-1, 1) translate(-194.510695, -293.466472) translate(182.422460, 264.889213)">
                        <polygon id="Path-45" fill="#ECDABC" points="19.7504054 16.6312466 21.18918 19.0032245 18.6818182 27.4781341 19.9354991 27.4781341 24.1764706 19.0032245 21.4291444 15.3877551"></polygon>
                        <polygon id="Path-46" fill="#ECDABC" points="8.49073992 15.3877551 4.94518717 20.816013 0.878451722 20.1032258 0 20.816013 5.94505404 23.0816327 9.89037433 18.0732495"></polygon>
                        <polygon id="Path-47" fill="#ECDABC" points="12.0882353 10.2300319 13.55737 7.99423632 12.0882353 5.83165319 12.0882353 1.72800153 15.7703648 0 17.5828877 2.86138657 16.9916937 5.83165319 15.7703648 7.99423632 16.1279133 10.2300319 13.55737 10.9912536"></polygon>
                        <path d="M8.43311183,26.487936 L8.92888435,19.4637609 L7.69251337,16.201173 L9.64914247,10.1899769 L13.143229,9.89212828 C12.6797908,10.8261706 13.0096051,11.2931917 14.132672,11.2931917 C15.2557389,11.2931917 16.1361436,11.0460028 16.7738864,10.551625 L22.5774357,12.3431228 L24.1764706,17.4442096 L21.9374261,19.4637609 L20.2953612,18.5839619 L20.2953612,29.6763848 L11.6161581,29.6763848 L8.43311183,26.487936 Z" id="Path-44" fill="#F8B205"></path>
                        <path d="M11.4347975,4.15853632 L14.4447226,4.15853632 L17.5828877,5.34965013 C17.5828877,5.80296326 17.5828877,5.2004942 17.5828877,3.54224295 C17.5828877,1.05486608 16.9792772,0.62741854 15.4385203,0.125125209 C13.8977634,-0.377168122 12.3257828,0.74264925 11.4347975,1.53793927 C10.8408073,2.06813262 10.8408073,2.94166497 11.4347975,4.15853632 Z" id="Path-48" fill="#DA5C52"></path>
                        <path d="M8.10234394,25.2962652 C8.10234394,25.9896161 10.8556562,28.9644695 13.0509101,28.9644695 C14.5144126,28.9644695 16.7576922,28.9644695 19.7807487,28.9644695 L19.7807487,57.154519 C18.3864031,57.154519 17.6892303,57.154519 17.6892303,57.154519 C17.6892303,57.154519 16.1431235,48.7783233 13.0509101,32.0259319 L6.85991959,53.2551977 L4.39572193,53.2551977 C6.86680327,34.1536754 8.10234394,24.8340313 8.10234394,25.2962652 Z" id="Path-43" fill="#00A9B9"></path>
                    </g>
                    <ellipse id="Oval" stroke="#FFFFFF" stroke-width="1.10000002" cx="203.851604" cy="258.844023" rx="164.839037" ry="62.6497084"></ellipse>
                    <ellipse id="Oval-Copy-21" stroke="#FFFFFF" stroke-width="1.10000002" cx="194.510695" cy="266.537901" rx="193.960695" ry="91.2269679"></ellipse>
                    <path d="M315.462804,254.997085 C315.462804,254.997085 314.706932,273.102957 313.195187,309.314701 L371.70465,332.160193 L368.257614,271.129755 C333.061074,260.374641 315.462804,254.997085 315.462804,254.997085 Z" id="Path-31" fill="#FFD97A"></path>
                    <path d="M21.2899,340.728649 C19.9484321,315.437459 19.5012762,302.791864 19.9484321,302.791864 C20.3955881,302.791864 92.6395355,312.683277 236.680274,332.466102 L370.217499,295.664723 L372.114871,332.466102 C325.556903,361.923521 266.834549,376.65223 195.94781,376.65223 C125.06107,376.65223 66.8417668,364.677703 21.2899,340.728649 Z" id="Path-30" fill="#B24A42"></path>
                    <path d="M19.7807487,302.444094 C83.2339677,334.06513 148.090183,346.73255 214.349395,340.446354 C280.608607,334.160158 332.508747,319.138849 370.049815,295.382428 L315.451,275.880466 C288.736829,293.589551 251.457974,304.063801 203.614433,307.303216 C155.770892,310.54263 113.217027,301.536743 75.9528378,280.285555 L19.7807487,302.444094 Z" id="Path-29" fill="#DA5C52"></path>
                    <path d="M368.141711,270.600586 L407.798704,198.941691 L410.387217,270.600586 C407.817859,286.211243 403.423926,298.033997 397.205418,306.068846 C390.986909,314.103696 382.511694,322.750498 371.779772,332.009251 L368.141711,270.600586 Z" id="Path-33" fill="#DFA004"></path>
                    <path d="M118.719907,214.230137 L115.387701,125.568717 C139.448268,116.320057 167.827647,112.769009 200.525837,114.915573 C249.573122,118.135419 274.148814,127.906758 274.148814,127.906758 C274.148814,127.906758 274.627963,157.627425 275.586263,217.068757 C246.920392,207.868233 219.346453,203.267971 192.864446,203.267971 C166.382439,203.267971 141.667593,206.922026 118.719907,214.230137 Z" id="Path-35" fill="#8BCDD3"></path>
                    <polygon id="Path-36" fill="#D5E9EB" points="274.73262 128.216161 318.314229 100.020408 318.314229 183.686317 276.166381 217.378159"></polygon>
                    <polygon id="Path-37" fill="#63989C" points="86.815508 95.6239067 116.29024 125.380695 119.660611 214.042115 88.5400991 184.679796"></polygon>
                    <path d="M85.8403498,95.6044597 C87.5649409,96.880323 136.184029,81.335277 199.065604,81.335277 C240.986654,81.335277 280.517387,87.392119 317.657803,99.5058031 L274.076195,127.701556 C243.423833,119.598915 217.895878,115.26852 197.492331,114.710371 C166.887009,113.873146 137.846376,116.584465 115.315082,125.363514 C100.740302,111.227883 84.1157587,94.3285965 85.8403498,95.6044597 Z" id="Path-38" fill="#00A9B9"></path>
                    <path d="M274.73262,154.976676 L275.904661,216.967961 C294.566357,223.252511 307.563526,228.883739 314.896168,233.861646 C322.228811,238.839554 325.992075,242.208845 326.185962,243.969521 L340.39157,231.011863 L340.39157,183.001338 C317.348372,168.488732 305.826772,161.23243 305.826772,161.23243 C305.826772,161.23243 295.462055,159.147179 274.73262,154.976676 Z" id="Path-34" fill="#DFA004"></path>
                    <path d="M274.73262,155.089195 C307.769933,166.784842 328.221774,181.417725 336.088141,198.987846 C343.954509,216.557966 336.983169,235.280307 315.174121,255.154869 L368.245809,271.0997 C403.473113,241.81402 415.148892,213.608503 403.273145,186.483148 C391.397398,159.357793 363.000849,139.329883 318.083496,126.399417 L274.73262,155.089195 Z" id="Path-32" fill="#F8B205"></path>
                    <g id="Group-15" transform="translate(356.053476, 108.813411)">
                        <polygon id="Rectangle-Copy-55" fill="#EEF4F4" points="-2.16715534e-13 6.09312244 10.9721706 11.2328599 10.9721706 69.9201336 -2.16715534e-13 62.2157693"></polygon>
                        <polygon id="Rectangle-Copy-56" fill="#8BCDD3" points="21.4939739 4.8455844 21.4939739 62.5581248 10.9879633 69.9201336 10.9879633 11.2328599"></polygon>
                        <polygon id="Path-39-Copy" fill="#005161" points="-1.84741111e-13 6.10619506 10.9721706 0.0558790414 21.4939739 4.8832643 11.0097439 11.2328599"></polygon>
                        <polygon id="Rectangle-Copy-75" fill="#F9F9F9" points="12.4878464 13.2920586 15.2810264 12.0739742 15.2810264 15.7450495 12.4878464 16.9631339"></polygon>
                        <polygon id="Rectangle-Copy-74" fill="#F9F9F9" points="17.4829849 10.6672816 20.2761649 9.44919716 20.2761649 13.1202725 17.4829849 14.338357"></polygon>
                        <polygon id="Rectangle-Copy-73" fill="#F9F9F9" points="12.4878464 18.5416126 15.2810264 17.3235281 15.2810264 20.9946035 12.4878464 22.2126879"></polygon>
                        <polygon id="Rectangle-Copy-72" fill="#F9F9F9" points="17.4829849 15.9168356 20.2761649 14.6987511 20.2761649 18.3698265 17.4829849 19.5879109"></polygon>
                        <polygon id="Rectangle-Copy-71" fill="#F9F9F9" points="12.4878464 24.3161219 15.2810264 23.0980375 15.2810264 26.7691129 12.4878464 27.9871973"></polygon>
                        <polygon id="Rectangle-Copy-70" fill="#F9F9F9" points="17.4829849 21.6913449 20.2761649 20.4732605 20.2761649 24.1443359 17.4829849 25.3624203"></polygon>
                        <polygon id="Rectangle-Copy-69" fill="#F9F9F9" points="12.4878464 29.5656759 15.2810264 28.3475915 15.2810264 32.0186669 12.4878464 33.2367513"></polygon>
                        <polygon id="Rectangle-Copy-68" fill="#F9F9F9" points="17.4829849 26.9408989 20.2761649 25.7228145 20.2761649 29.3938899 17.4829849 30.6119743"></polygon>
                        <polygon id="Rectangle-Copy-67" fill="#F9F9F9" points="12.4878464 35.3401853 15.2810264 34.1221009 15.2810264 37.7931762 12.4878464 39.0112607"></polygon>
                        <polygon id="Rectangle-Copy-66" fill="#F9F9F9" points="17.4829849 32.7154083 20.2761649 31.4973239 20.2761649 35.1683992 17.4829849 36.3864837"></polygon>
                        <polygon id="Rectangle-Copy-85" fill="#F9F9F9" points="12.4878464 40.5897393 15.2810264 39.3716548 15.2810264 43.0427302 12.4878464 44.2608146"></polygon>
                        <polygon id="Rectangle-Copy-84" fill="#F9F9F9" points="17.4829849 37.9649623 20.2761649 36.7468779 20.2761649 40.4179532 17.4829849 41.6360377"></polygon>
                        <polygon id="Rectangle-Copy-83" fill="#F9F9F9" points="12.4878464 45.8392933 15.2810264 44.6212088 15.2810264 48.2922842 12.4878464 49.5103686"></polygon>
                        <polygon id="Rectangle-Copy-82" fill="#F9F9F9" points="17.4829849 43.2145163 20.2761649 41.9964318 20.2761649 45.6675072 17.4829849 46.8855916"></polygon>
                    </g>
                    <g id="Group-15-Copy" transform="translate(330.778075, 96.723032)">
                        <polygon id="Rectangle-Copy-55" fill="#EEF4F4" points="-2.16715534e-13 6.09312244 10.9721706 11.2328599 10.9721706 69.9201336 -2.16715534e-13 62.2157693"></polygon>
                        <polygon id="Rectangle-Copy-56" fill="#8BCDD3" points="21.4939739 4.8455844 21.4939739 62.5581248 10.9879633 69.9201336 10.9879633 11.2328599"></polygon>
                        <polygon id="Path-39-Copy" fill="#005161" points="-1.84741111e-13 6.10619506 10.9721706 0.0558790414 21.4939739 4.8832643 11.0097439 11.2328599"></polygon>
                        <polygon id="Rectangle-Copy-75" fill="#F9F9F9" points="12.4878464 13.2920586 15.2810264 12.0739742 15.2810264 15.7450495 12.4878464 16.9631339"></polygon>
                        <polygon id="Rectangle-Copy-74" fill="#F9F9F9" points="17.4829849 10.6672816 20.2761649 9.44919716 20.2761649 13.1202725 17.4829849 14.338357"></polygon>
                        <polygon id="Rectangle-Copy-73" fill="#F9F9F9" points="12.4878464 18.5416126 15.2810264 17.3235281 15.2810264 20.9946035 12.4878464 22.2126879"></polygon>
                        <polygon id="Rectangle-Copy-72" fill="#F9F9F9" points="17.4829849 15.9168356 20.2761649 14.6987511 20.2761649 18.3698265 17.4829849 19.5879109"></polygon>
                        <polygon id="Rectangle-Copy-71" fill="#F9F9F9" points="12.4878464 24.3161219 15.2810264 23.0980375 15.2810264 26.7691129 12.4878464 27.9871973"></polygon>
                        <polygon id="Rectangle-Copy-70" fill="#F9F9F9" points="17.4829849 21.6913449 20.2761649 20.4732605 20.2761649 24.1443359 17.4829849 25.3624203"></polygon>
                        <polygon id="Rectangle-Copy-69" fill="#F9F9F9" points="12.4878464 29.5656759 15.2810264 28.3475915 15.2810264 32.0186669 12.4878464 33.2367513"></polygon>
                        <polygon id="Rectangle-Copy-68" fill="#F9F9F9" points="17.4829849 26.9408989 20.2761649 25.7228145 20.2761649 29.3938899 17.4829849 30.6119743"></polygon>
                        <polygon id="Rectangle-Copy-67" fill="#F9F9F9" points="12.4878464 35.3401853 15.2810264 34.1221009 15.2810264 37.7931762 12.4878464 39.0112607"></polygon>
                        <polygon id="Rectangle-Copy-66" fill="#F9F9F9" points="17.4829849 32.7154083 20.2761649 31.4973239 20.2761649 35.1683992 17.4829849 36.3864837"></polygon>
                        <polygon id="Rectangle-Copy-85" fill="#F9F9F9" points="12.4878464 40.5897393 15.2810264 39.3716548 15.2810264 43.0427302 12.4878464 44.2608146"></polygon>
                        <polygon id="Rectangle-Copy-84" fill="#F9F9F9" points="17.4829849 37.9649623 20.2761649 36.7468779 20.2761649 40.4179532 17.4829849 41.6360377"></polygon>
                        <polygon id="Rectangle-Copy-83" fill="#F9F9F9" points="12.4878464 45.8392933 15.2810264 44.6212088 15.2810264 48.2922842 12.4878464 49.5103686"></polygon>
                        <polygon id="Rectangle-Copy-82" fill="#F9F9F9" points="17.4829849 43.2145163 20.2761649 41.9964318 20.2761649 45.6675072 17.4829849 46.8855916"></polygon>
                    </g>
                    <g id="Group-16" transform="translate(340.668449, 132.994169)">
                        <polygon id="Rectangle" fill="#EEF4F4" points="-1.04805054e-13 4.73559333 11.0585187 9.41099259 11.0770135 49.0574935 -1.04805054e-13 43.6556457"></polygon>
                        <polygon id="Rectangle-Copy-54" fill="#8BCDD3" points="23.0775401 4.55093036 23.0775401 43.6556457 11.0770135 49.0574935 11.0770135 9.41099259"></polygon>
                        <polygon id="Path-39" fill="#005161" points="-9.5567998e-13 4.49364096 11.0576124 1.88293825e-13 23.0775401 4.54516246 11.0576124 9.41099259"></polygon>
                        <polygon id="Rectangle" fill="#F9F9F9" points="13.043827 10.6921057 15.8491513 9.47118665 15.8491513 13.1508051 13.043827 14.3717241"></polygon>
                        <polygon id="Rectangle-Copy-57" fill="#F9F9F9" points="18.0606836 8.58739757 20.8660078 7.36647851 20.8660078 11.0460969 18.0606836 12.267016"></polygon>
                        <polygon id="Rectangle-Copy-59" fill="#F9F9F9" points="13.043827 15.9538761 15.8491513 14.732957 15.8491513 18.4125754 13.043827 19.6334945"></polygon>
                        <polygon id="Rectangle-Copy-58" fill="#F9F9F9" points="18.0606836 13.8491679 20.8660078 12.6282489 20.8660078 16.3078673 18.0606836 17.5287864"></polygon>
                        <polygon id="Rectangle-Copy-61" fill="#F9F9F9" points="13.043827 21.7418235 15.8491513 20.5209044 15.8491513 24.2005228 13.043827 25.4214419"></polygon>
                        <polygon id="Rectangle-Copy-60" fill="#F9F9F9" points="18.0606836 19.6371153 20.8660078 18.4161963 20.8660078 22.0958147 18.0606836 23.3167338"></polygon>
                        <polygon id="Rectangle-Copy-63" fill="#F9F9F9" points="13.043827 27.0035938 15.8491513 25.7826748 15.8491513 29.4622932 13.043827 30.6832123"></polygon>
                        <polygon id="Rectangle-Copy-62" fill="#F9F9F9" points="18.0606836 24.8988857 20.8660078 23.6779666 20.8660078 27.3575851 18.0606836 28.5785041"></polygon>
                        <polygon id="Rectangle-Copy-65" fill="#F9F9F9" points="13.043827 32.7915412 15.8491513 31.5706222 15.8491513 35.2502406 13.043827 36.4711597"></polygon>
                        <polygon id="Rectangle-Copy-64" fill="#F9F9F9" points="18.0606836 30.6868331 20.8660078 29.465914 20.8660078 33.1455325 18.0606836 34.3664515"></polygon>
                    </g>
                    <g id="Group-16-Copy" transform="translate(315.393048, 120.903790)">
                        <polygon id="Rectangle" fill="#EEF4F4" points="-1.04805054e-13 4.73559333 11.0585187 9.41099259 11.0770135 49.0574935 -1.04805054e-13 43.6556457"></polygon>
                        <polygon id="Rectangle-Copy-54" fill="#8BCDD3" points="23.0775401 4.55093036 23.0775401 43.6556457 11.0770135 49.0574935 11.0770135 9.41099259"></polygon>
                        <polygon id="Path-39" fill="#005161" points="-9.5567998e-13 4.49364096 11.0576124 1.88293825e-13 23.0775401 4.54516246 11.0576124 9.41099259"></polygon>
                        <polygon id="Rectangle" fill="#F9F9F9" points="13.043827 10.6921057 15.8491513 9.47118665 15.8491513 13.1508051 13.043827 14.3717241"></polygon>
                        <polygon id="Rectangle-Copy-57" fill="#F9F9F9" points="18.0606836 8.58739757 20.8660078 7.36647851 20.8660078 11.0460969 18.0606836 12.267016"></polygon>
                        <polygon id="Rectangle-Copy-59" fill="#F9F9F9" points="13.043827 15.9538761 15.8491513 14.732957 15.8491513 18.4125754 13.043827 19.6334945"></polygon>
                        <polygon id="Rectangle-Copy-58" fill="#F9F9F9" points="18.0606836 13.8491679 20.8660078 12.6282489 20.8660078 16.3078673 18.0606836 17.5287864"></polygon>
                        <polygon id="Rectangle-Copy-61" fill="#F9F9F9" points="13.043827 21.7418235 15.8491513 20.5209044 15.8491513 24.2005228 13.043827 25.4214419"></polygon>
                        <polygon id="Rectangle-Copy-60" fill="#F9F9F9" points="18.0606836 19.6371153 20.8660078 18.4161963 20.8660078 22.0958147 18.0606836 23.3167338"></polygon>
                        <polygon id="Rectangle-Copy-63" fill="#F9F9F9" points="13.043827 27.0035938 15.8491513 25.7826748 15.8491513 29.4622932 13.043827 30.6832123"></polygon>
                        <polygon id="Rectangle-Copy-62" fill="#F9F9F9" points="18.0606836 24.8988857 20.8660078 23.6779666 20.8660078 27.3575851 18.0606836 28.5785041"></polygon>
                        <polygon id="Rectangle-Copy-65" fill="#F9F9F9" points="13.043827 32.7915412 15.8491513 31.5706222 15.8491513 35.2502406 13.043827 36.4711597"></polygon>
                        <polygon id="Rectangle-Copy-64" fill="#F9F9F9" points="18.0606836 30.6868331 20.8660078 29.465914 20.8660078 33.1455325 18.0606836 34.3664515"></polygon>
                    </g>
                    <polygon id="Path-40" fill="#D5E9EB" opacity="0.619559152" points="108.794118 27.8298106 155.618859 0 155.618859 59.4751332 142.754872 68.1228272 136.3563 77.7988411 128.715299 77.7988411 108.794118 90.2506434"></polygon>
                    <polygon id="Path-41" fill="#FFDF7B" points="116.486631 32.3021514 116.486631 38.1237643 151.60626 16.1343056 151.60626 10.9912536"></polygon>
                    <polygon id="Path-42" fill="#FFFFFF" points="116.556387 41.9420214 149.96323 21.9825073 149.96323 56.5889086 116.486631 77.2055956"></polygon>
                    <ellipse id="Oval" fill="#D5E9EB" cx="125.278075" cy="47.2623907" rx="5.49465241" ry="6.59475219"></ellipse>
                    <polygon id="Path-41-Copy" fill="#FFDF7B" points="134.069519 40.5184408 134.069519 46.3400537 148.079273 37.0176875 148.079273 31.8746356"></polygon>
                    <path d="M122.530749,61.0014577 L146.707219,47.2623907" id="Line-4" stroke="#D5E9EB" stroke-width="1.10000002" stroke-linecap="square"></path>
                    <path d="M122.530749,65.3979592 L146.707219,51.6588921" id="Line-4-Copy" stroke="#D5E9EB" stroke-width="1.10000002" stroke-linecap="square"></path>
                    <g id="Group-17" transform="translate(151.652406, 53.857143)">
                        <polygon id="Path-45" fill="#ECDABC" points="15.0419687 13.0188394 16.0596956 14.789891 14.2860963 21.1177332 15.172896 21.1177332 18.1727758 14.789891 16.229436 12.090379"></polygon>
                        <polygon id="Path-46" fill="#ECDABC" points="5.93197093 12.090379 3.45490579 16.1938519 0.613721552 15.6550229 4.4408921e-16 16.1938519 4.15345283 17.9065393 6.90981158 14.1204693"></polygon>
                        <polygon id="Path-47" fill="#ECDABC" points="8.79144385 8.89819265 9.97909007 7.19368964 8.79144385 5.54500159 8.79144385 2.41650153 11.7680716 1.09912536 13.2333123 3.28056005 12.755392 5.54500159 11.7680716 7.19368964 12.0571132 8.89819265 9.97909007 9.47852512"></polygon>
                        <path d="M6.03030053,20.382389 L6.38887489,15.0349759 L5.49465241,12.5512102 L6.90981158,7.97496491 L9.43695819,7.74821663 C9.10177008,8.45929088 9.34031288,8.814828 10.1525866,8.814828 C10.9648603,8.814828 11.6016253,8.62664631 12.0628816,8.25028293 L16.2603792,9.61412684 L17.4169034,13.4975179 L15.7974834,15.0349759 L14.6098372,14.3651964 L14.6098372,22.8097136 L8.33248298,22.8097136 L6.03030053,20.382389 Z" id="Path-44" fill="#DA5C52"></path>
                        <path d="M8.79144385,3.60435837 L10.9660527,3.60435837 L13.2333123,4.40329943 C13.2333123,4.70735978 13.2333123,4.30325291 13.2333123,3.19097883 C13.2333123,1.5225677 12.7972161,1.23585674 11.684051,0.898942864 C10.5708859,0.562028989 9.43516237,1.31314788 8.79144385,1.84658965 C8.36229817,2.20221749 8.36229817,2.7881404 8.79144385,3.60435837 Z" id="Path-48" fill="#12365B"></path>
                        <path d="M6.05771119,19.7965057 C6.05771119,20.3149408 8.10854727,22.53931 9.74370718,22.53931 C10.8338138,22.53931 12.5047462,22.53931 14.7565043,22.53931 L14.7565043,43.6176865 C13.7179101,43.6176865 13.198613,43.6176865 13.198613,43.6176865 C13.198613,43.6176865 12.0469777,37.354604 9.74370718,24.828439 L5.13227722,40.7020704 L3.29679144,40.7020704 C5.13740461,26.4194038 6.05771119,19.4508822 6.05771119,19.7965057 Z" id="Path-43" fill="#12365B"></path>
                    </g>
                    <g id="Group-18-Copy" transform="translate(391.219251, 169.265306)">
                        <rect id="Rectangle" fill="#EEF4F4" x="2.19786096" y="15.3877551" width="1.09893048" height="8.79300292"></rect>
                        <ellipse id="Oval" fill="#005161" cx="2.7473262" cy="7.69387755" rx="2.7473262" ry="7.69387755"></ellipse>
                    </g>
                    <g id="Group-18-Copy-2" transform="translate(343.965241, 163.769679)">
                        <rect id="Rectangle" fill="#EEF4F4" x="2.19786096" y="15.3877551" width="1.09893048" height="8.79300292"></rect>
                        <ellipse id="Oval" fill="#005161" cx="2.7473262" cy="7.69387755" rx="2.7473262" ry="7.69387755"></ellipse>
                    </g>
                    <g id="Group-18-Copy-3" transform="translate(330.778075, 152.778426)">
                        <rect id="Rectangle" fill="#EEF4F4" x="2.19786096" y="15.3877551" width="1.09893048" height="8.79300292"></rect>
                        <ellipse id="Oval" fill="#005161" cx="2.7473262" cy="7.69387755" rx="2.7473262" ry="7.69387755"></ellipse>
                    </g>
                    <g id="Group-18-Copy-4" transform="translate(306.601604, 137.390671)">
                        <rect id="Rectangle" fill="#EEF4F4" x="2.19786096" y="15.3877551" width="1.09893048" height="8.79300292"></rect>
                        <ellipse id="Oval" fill="#005161" cx="2.7473262" cy="7.69387755" rx="2.7473262" ry="7.69387755"></ellipse>
                    </g>
                    <g id="Group-15-Copy-2" transform="translate(371.438503, 139.588921)">
                        <polygon id="Rectangle-Copy-55" fill="#EEF4F4" points="0 4.99399708 10.9721706 10.1337345 10.9721706 66.6478923 0 61.116644"></polygon>
                        <polygon id="Rectangle-Copy-56" fill="#8BCDD3" points="21.4939739 4.99283543 21.4939739 61.4589994 10.9879633 66.8746406 10.9879633 10.1337345"></polygon>
                        <polygon id="Path-39-Copy" fill="#005161" points="0 5.0070697 10.711621 0.326302843 21.4232419 5.0070697 11.0097439 10.1337345"></polygon>
                        <polygon id="Rectangle-Copy-75" fill="#F9F9F9" points="12.4878464 12.1929332 15.2810264 10.9748488 15.2810264 14.6459242 12.4878464 15.8640086"></polygon>
                        <polygon id="Rectangle-Copy-74" fill="#F9F9F9" points="17.4829849 9.56815623 20.2761649 8.3500718 20.2761649 12.0211472 17.4829849 13.2392316"></polygon>
                        <polygon id="Rectangle-Copy-73" fill="#F9F9F9" points="12.4878464 17.4424872 15.2810264 16.2244028 15.2810264 19.8954781 12.4878464 21.1135626"></polygon>
                        <polygon id="Rectangle-Copy-72" fill="#F9F9F9" points="17.4829849 14.8177102 20.2761649 13.5996258 20.2761649 17.2707011 17.4829849 18.4887856"></polygon>
                        <polygon id="Rectangle-Copy-71" fill="#F9F9F9" points="12.4878464 23.2169966 15.2810264 21.9989121 15.2810264 25.6699875 12.4878464 26.8880719"></polygon>
                        <polygon id="Rectangle-Copy-70" fill="#F9F9F9" points="17.4829849 20.5922196 20.2761649 19.3741352 20.2761649 23.0452105 17.4829849 24.263295"></polygon>
                        <polygon id="Rectangle-Copy-69" fill="#F9F9F9" points="12.4878464 28.4665506 15.2810264 27.2484661 15.2810264 30.9195415 12.4878464 32.1376259"></polygon>
                        <polygon id="Rectangle-Copy-68" fill="#F9F9F9" points="17.4829849 25.8417736 20.2761649 24.6236891 20.2761649 28.2947645 17.4829849 29.5128489"></polygon>
                        <polygon id="Rectangle-Copy-67" fill="#F9F9F9" points="12.4878464 34.2410599 15.2810264 33.0229755 15.2810264 36.6940509 12.4878464 37.9121353"></polygon>
                        <polygon id="Rectangle-Copy-66" fill="#F9F9F9" points="17.4829849 31.6162829 20.2761649 30.3981985 20.2761649 34.0692739 17.4829849 35.2873583"></polygon>
                        <polygon id="Rectangle-Copy-85" fill="#F9F9F9" points="12.4878464 39.4906139 15.2810264 38.2725295 15.2810264 41.9436048 12.4878464 43.1616893"></polygon>
                        <polygon id="Rectangle-Copy-84" fill="#F9F9F9" points="17.4829849 36.8658369 20.2761649 35.6477525 20.2761649 39.3188279 17.4829849 40.5369123"></polygon>
                        <polygon id="Rectangle-Copy-83" fill="#F9F9F9" points="12.4878464 44.7401679 15.2810264 43.5220835 15.2810264 47.1931588 12.4878464 48.4112433"></polygon>
                        <polygon id="Rectangle-Copy-82" fill="#F9F9F9" points="17.4829849 42.1153909 20.2761649 40.8973065 20.2761649 44.5683818 17.4829849 45.7864663"></polygon>
                    </g>
                    <g id="Group-16-Copy-2" transform="translate(356.053476, 160.472303)">
                        <polygon id="Rectangle" fill="#EEF4F4" points="-1.04805054e-13 4.73559333 11.0585187 9.41099259 11.0770135 49.0574935 -1.04805054e-13 43.6556457"></polygon>
                        <polygon id="Rectangle-Copy-54" fill="#8BCDD3" points="23.0775401 4.55093036 23.0775401 43.6556457 11.0770135 49.0574935 11.0770135 9.41099259"></polygon>
                        <polygon id="Path-39" fill="#005161" points="-9.5567998e-13 4.49364096 11.0576124 1.88293825e-13 23.0775401 4.54516246 11.0576124 9.41099259"></polygon>
                        <polygon id="Rectangle" fill="#F9F9F9" points="13.043827 10.6921057 15.8491513 9.47118665 15.8491513 13.1508051 13.043827 14.3717241"></polygon>
                        <polygon id="Rectangle-Copy-57" fill="#F9F9F9" points="18.0606836 8.58739757 20.8660078 7.36647851 20.8660078 11.0460969 18.0606836 12.267016"></polygon>
                        <polygon id="Rectangle-Copy-59" fill="#F9F9F9" points="13.043827 15.9538761 15.8491513 14.732957 15.8491513 18.4125754 13.043827 19.6334945"></polygon>
                        <polygon id="Rectangle-Copy-58" fill="#F9F9F9" points="18.0606836 13.8491679 20.8660078 12.6282489 20.8660078 16.3078673 18.0606836 17.5287864"></polygon>
                        <polygon id="Rectangle-Copy-61" fill="#F9F9F9" points="13.043827 21.7418235 15.8491513 20.5209044 15.8491513 24.2005228 13.043827 25.4214419"></polygon>
                        <polygon id="Rectangle-Copy-60" fill="#F9F9F9" points="18.0606836 19.6371153 20.8660078 18.4161963 20.8660078 22.0958147 18.0606836 23.3167338"></polygon>
                        <polygon id="Rectangle-Copy-63" fill="#F9F9F9" points="13.043827 27.0035938 15.8491513 25.7826748 15.8491513 29.4622932 13.043827 30.6832123"></polygon>
                        <polygon id="Rectangle-Copy-62" fill="#F9F9F9" points="18.0606836 24.8988857 20.8660078 23.6779666 20.8660078 27.3575851 18.0606836 28.5785041"></polygon>
                        <polygon id="Rectangle-Copy-65" fill="#F9F9F9" points="13.043827 32.7915412 15.8491513 31.5706222 15.8491513 35.2502406 13.043827 36.4711597"></polygon>
                        <polygon id="Rectangle-Copy-64" fill="#F9F9F9" points="18.0606836 30.6868331 20.8660078 29.465914 20.8660078 33.1455325 18.0606836 34.3664515"></polygon>
                    </g>
                    <g id="Group-18" transform="translate(352.756684, 186.851312)">
                        <rect id="Rectangle" fill="#EEF4F4" x="2.19786096" y="15.3877551" width="1.09893048" height="8.79300292"></rect>
                        <ellipse id="Oval" fill="#005161" cx="2.7473262" cy="7.69387755" rx="2.7473262" ry="7.69387755"></ellipse>
                    </g>
                    <polygon id="Rectangle" fill="#FFFFFF" opacity="0.559477307" points="193.411765 248.402332 297.81016 233.014577 297.81016 313.250729 193.411765 328.638484"></polygon>
                    <polygon id="Rectangle" fill="#8BCDD3" points="206.59893 303.724976 214.291444 303.358601 214.291444 316.18173 206.59893 316.548105"></polygon>
                    <polygon id="Rectangle-Copy-76" fill="#8BCDD3" points="216.489305 290.871315 224.181818 290.169096 224.181818 314.746761 216.489305 315.44898"></polygon>
                    <polygon id="Rectangle-Copy-77" fill="#8BCDD3" points="226.379679 295.11516 234.072193 294.565598 234.072193 313.800292 226.379679 314.349854"></polygon>
                    <polygon id="Rectangle-Copy-78" fill="#8BCDD3" points="236.270053 279.086249 243.962567 278.078717 243.962567 313.342323 236.270053 314.349854"></polygon>
                    <polygon id="Rectangle-Copy-79" fill="#8BCDD3" points="246.160428 270.506965 253.852941 269.285714 253.852941 312.029478 246.160428 313.250729"></polygon>
                    <polygon id="Rectangle-Copy-80" fill="#8BCDD3" points="256.050802 282.2615 263.743316 281.376093 263.743316 312.365322 256.050802 313.250729"></polygon>
                    <polygon id="Rectangle-Copy-86" fill="#8BCDD3" points="278.029412 277.864998 285.721925 276.979592 285.721925 307.968821 278.029412 308.854227"></polygon>
                    <polygon id="Rectangle-Copy-81" fill="#8BCDD3" points="265.941176 274.689747 273.63369 273.682216 273.63369 308.945821 265.941176 309.953353"></polygon>
                    <path d="M202.203209,308.854227 L220.401025,287.970845 L231.506233,292.367347 L240.159237,273.682216 L250.292149,264.889213 L259.685643,281.376093 C265.762672,273.984189 268.801186,270.320438 268.801186,270.38484 C268.801186,270.449242 273.474502,277.043994 282.821135,290.169096 L292.9079,283.065569" id="Path-49" stroke="#01909E" stroke-width="1.10000002"></path>
                    <path d="" id="Path-53" stroke="#979797" stroke-width="1.10000002"></path>
                    <path d="M52.7486631,300.47286 L71.6347868,289.069971 L93.0039676,300.521698 L71.970399,311.973425 L52.7486631,300.47286 Z" id="Path-54" stroke="#ED9494" stroke-width="1.10000002" stroke-linejoin="round" stroke-dasharray="1.100000023841858,2.200000047683716"></path>
                    <path d="M249.457219,104.509219 L267.15051,92.3265306 L289.735597,102.816155 L267.907768,117.528883 L249.457219,104.509219 Z" id="Path-54-Copy" stroke="#FFD97A" stroke-width="1.10000002" stroke-linejoin="round" stroke-dasharray="1.100000023841858,2.200000047683716"></path>
                    <g id="Group-19" transform="translate(60.441176, 286.871720)">
                        <polygon id="Path-50" fill="#63989C" points="4.4408921e-15 5.9439578 4.4408921e-15 15.0136875 11.2412325 21.3786055 11.5710763 12.2529752"></polygon>
                        <polygon id="Path-51" fill="#8BCDD3" points="11.563083 12.2574538 24.4077396 5.9439578 23.9496284 14.6578672 11.2354642 21.3138011"></polygon>
                        <polygon id="Path-52" fill="#01909E" points="0 5.96737057 11.590819 0 24.4077396 5.96737057 11.590819 12.2664108"></polygon>
                    </g>
                    <g id="Group-19-Copy-3" transform="translate(257.149733, 92.326531)">
                        <polygon id="Path-50" fill="#DFA004" points="0 4.84483244 0 13.672921 11.2412325 20.2794802 11.5710763 11.1538499"></polygon>
                        <polygon id="Path-51" fill="#FFD97A" points="11.563083 11.1583284 24.4077396 4.84483244 23.9811529 12.798263 11.2354642 20.2146758"></polygon>
                        <polygon id="Path-52" fill="#F8B205" points="0 4.84203575 11.590819 0 24.4077396 4.84203575 11.590819 11.1672854"></polygon>
                    </g>
                    <g id="Group-19-Copy-2" transform="translate(60.441176, 279.177843)">
                        <polygon id="Path-50" fill="#63989C" points="0 5.75721087 0 10.6171861 11.2412325 16.9821041 11.5710763 12.0662283"></polygon>
                        <polygon id="Path-51" fill="#8BCDD3" points="11.563083 12.1276437 24.4077396 5.81414777 23.9496284 10.6085992 11.2354642 16.9172997"></polygon>
                        <polygon id="Path-52" fill="#01909E" points="0 5.96737057 11.590819 0 24.4077396 5.96737057 11.590819 12.2664108"></polygon>
                    </g>
                    <g id="Group-19-Copy-4" transform="translate(257.149733, 83.533528)">
                        <polygon id="Path-50" fill="#DFA004" points="0 5.75721087 0 10.6171861 11.2412325 16.9821041 11.5710763 12.0662283"></polygon>
                        <polygon id="Path-51" fill="#FFD97A" points="11.563083 12.1276437 24.4077396 5.81414777 23.9496284 10.6085992 11.2354642 16.9172997"></polygon>
                        <polygon id="Path-52" fill="#F8B205" points="0 5.96737057 11.590819 0 24.4077396 5.96737057 11.590819 12.2664108"></polygon>
                    </g>
                </g>
            </g>
        </g>
    </g>
</svg>