<?xml version="1.0" encoding="UTF-8"?>
<svg width="423px" height="394px" viewBox="0 0 423 394" version="1.1" xmlns="http://www.w3.org/2000/svg" xmlns:xlink="http://www.w3.org/1999/xlink">
    <!-- Generator: Sketch 53.2 (72643) - https://sketchapp.com -->
    <title>Illustration_Contracts_Process</title>
    <desc>Created with Sketch.</desc>
    <g id="Page-1" stroke="none" stroke-width="1" fill="none" fill-rule="evenodd">
        <g id="Gobierto-Contratos-Proto-v2" transform="translate(-718.000000, -2971.000000)">
            <g id="Illustration_Contracts_Process" transform="translate(718.000000, 2971.728516)">
                <circle id="Oval" fill="#D5E9EB" cx="198" cy="198.271484" r="139"></circle>
                <path d="M151.520996,120.040527 C163.437012,120.040527 203.854004,120.040527 272.771973,120.040527 C261.808105,118.981608 256.326172,128.388997 256.326172,148.262695 C256.326172,168.136393 256.326172,206.628581 256.326172,263.739258 C255.639974,274.111003 251.598633,279.296875 244.202148,279.296875 C236.805664,279.296875 200.152995,279.296875 134.244141,279.296875 L134.244141,143.960937 C134.107747,128.013997 139.866699,120.040527 151.520996,120.040527 Z" id="Path-59" fill="#FFFFFF"></path>
                <rect id="Rectangle" fill="#D5E9EB" x="149" y="134.271484" width="94" height="4"></rect>
                <rect id="Rectangle-Copy-13" fill="#D5E9EB" x="149" y="134.271484" width="94" height="4"></rect>
                <rect id="Rectangle-Copy-17" fill="#D5E9EB" x="149" y="143.271484" width="94" height="4"></rect>
                <rect id="Rectangle-Copy-19" fill="#D5E9EB" x="149" y="153.271484" width="94" height="4"></rect>
                <rect id="Rectangle-Copy-20" fill="#D5E9EB" x="149" y="163.271484" width="94" height="4"></rect>
                <rect id="Rectangle-Copy-21" fill="#D5E9EB" x="149" y="173.271484" width="94" height="4"></rect>
                <rect id="Rectangle-Copy-22" fill="#D5E9EB" x="149" y="183.271484" width="94" height="4"></rect>
                <rect id="Rectangle-Copy-23" fill="#D5E9EB" x="149" y="193.271484" width="94" height="4"></rect>
                <rect id="Rectangle-Copy-25" fill="#D5E9EB" x="149" y="203.271484" width="49" height="4"></rect>
                <path d="M104.5,252.787109 C121.313802,252.787109 161.813802,252.787109 226,252.787109 C224.803385,270.526693 229.945312,279.396484 241.425781,279.396484 C252.90625,279.396484 212.078125,279.396484 118.941406,279.396484 C109.313802,279.396484 104.5,270.526693 104.5,252.787109 Z" id="Path-57" fill="#01909E"></path>
                <path d="M256.667969,147.765625 L286.025391,147.765625 C288.495541,129.246094 283.702597,119.986328 271.646558,119.986328 C259.590519,119.986328 254.597656,129.246094 256.667969,147.765625 Z" id="Path-58" fill="#01909E"></path>
                <circle id="Oval" fill="#F8B205" cx="46" cy="134.271484" r="46"></circle>
                <circle id="Oval-Copy-7" fill="#12365B" cx="297" cy="46" r="46"></circle>
                <path d="M41.4521484,189.287109 C38.7249349,218.177734 47.7473958,232.623047 68.5195313,232.623047 C89.2916667,232.623047 107.270833,232.623047 122.457031,232.623047" id="Path-60" stroke="#01909E" stroke-width="3" stroke-dasharray="12,6"></path>
                <path d="M186.415441,54.0291104 C181.362055,82.6046312 189.22143,96.8923916 209.993566,96.8923916 C230.765701,96.8923916 248.744868,96.8923916 263.931066,96.8923916" id="Path-60-Copy" stroke="#01909E" stroke-width="3" stroke-dasharray="12,6" transform="translate(224.431641, 75.460751) rotate(-270.000000) translate(-224.431641, -75.460751) "></path>
                <path d="M268.982422,232.886719 L320.519531,232.886719 C338.877604,234.778982 348.056641,243.538831 348.056641,259.166267 C348.056641,274.793704 340.005859,282.955078 323.904297,283.650391" id="Path-61" stroke="#01909E" stroke-width="3" stroke-dasharray="10,9"></path>
                <path d="M300.706727,186.271484 C301.058442,190.051988 302.727164,191.787737 305.712891,191.478732 C302.54806,191.583405 300.965644,193.423828 300.965644,197 C300.793033,193.423828 299.137818,191.583405 296,191.478732 C299.2243,191.817781 300.793209,190.082032 300.706727,186.271484 Z" id="Polygon-Copy-5" fill="#01909E"></path>
                <path d="M63.7067268,317.271484 C64.0584424,321.051988 65.7271637,322.787737 68.7128906,322.478732 C65.5480598,322.583405 63.9656443,324.423828 63.9656443,328 C63.7930326,324.423828 62.1378178,322.583405 59,322.478732 C62.2243001,322.817781 63.793209,321.082032 63.7067268,317.271484 Z" id="Polygon-Copy-8" fill="#01909E"></path>
                <path d="M109.706727,170.271484 C110.058442,174.051988 111.727164,175.787737 114.712891,175.478732 C111.54806,175.583405 109.965644,177.423828 109.965644,181 C109.793033,177.423828 108.137818,175.583405 105,175.478732 C108.2243,175.817781 109.793209,174.082032 109.706727,170.271484 Z" id="Polygon-Copy-6" fill="#01909E"></path>
                <path d="M366.706727,74.2714844 C367.058442,78.0519876 368.727164,79.7877367 371.712891,79.4787319 C368.54806,79.5834054 366.965644,81.4238281 366.965644,85 C366.793033,81.4238281 365.137818,79.5834054 362,79.4787319 C365.2243,79.8177811 366.793209,78.0820319 366.706727,74.2714844 Z" id="Polygon-Copy-10" fill="#01909E"></path>
                <path d="M417.706727,217.271484 C418.058442,221.051988 419.727164,222.787737 422.712891,222.478732 C419.54806,222.583405 417.965644,224.423828 417.965644,228 C417.793033,224.423828 416.137818,222.583405 413,222.478732 C416.2243,222.817781 417.793209,221.082032 417.706727,217.271484 Z" id="Polygon-Copy-9" fill="#01909E"></path>
                <path d="M219.706727,308.027344 C220.058442,311.807847 221.727164,313.543596 224.712891,313.234591 C221.54806,313.339265 219.965644,315.179688 219.965644,318.755859 C219.793033,315.179688 218.137818,313.339265 215,313.234591 C218.2243,313.57364 219.793209,311.837891 219.706727,308.027344 Z" id="Polygon-Copy-7" fill="#01909E"></path>
                <circle id="Oval-Copy-2" fill="#01909E" cx="149" cy="301.271484" r="3"></circle>
                <circle id="Oval-Copy-6" fill="#01909E" cx="344" cy="376.213673" r="3"></circle>
                <circle id="Oval-Copy-4" fill="#01909E" cx="115" cy="35.1074219" r="4"></circle>
                <circle id="Oval-Copy-3" fill="#01909E" cx="169" cy="97.9601759" r="2"></circle>
                <circle id="Oval-Copy-5" fill="#01909E" cx="191" cy="390.271484" r="3"></circle>
                <rect id="Rectangle" fill="#FFFFFF" x="23" y="126.271484" width="40" height="33"></rect>
                <polygon id="Path-62" fill="#005161" points="23 125.829102 43.3252411 106.271484 63.0058441 125.829102"></polygon>
                <rect id="Rectangle" fill="#F8B205" x="29" y="139.271484" width="11" height="24" rx="5"></rect>
                <rect id="Rectangle" fill="#F8B205" x="47" y="134.271484" width="11" height="10"></rect>
                <g id="Group-20" transform="translate(284.000000, 275.271484)">
                    <polygon id="Path-63" fill="#0A8AA9" points="34.9472656 -3.19744231e-14 1.453125 51.078125 3.55271368e-15 62.4257812 9.7265625 56.0888672 42.4003906 4.88867187"></polygon>
                    <path d="M19,25 L26.755249,30.0605469" id="Path-64" stroke="#FFFFFF" stroke-width="2"></path>
                    <path d="M31,6 C37.1558431,10.0694987 40.2337646,12.104248 40.2337646,12.104248 C40.2337646,12.104248 37.7346598,16.0542399 32.7364502,23.9542236" id="Path-64-Copy" stroke="#005161" stroke-width="2"></path>
                </g>
                <polyline id="Path-65" stroke="#FFFFFF" stroke-width="5" points="278 42.1445312 288.400391 59.0703125 319.875977 29.6943359"></polyline>
            </g>
        </g>
    </g>
</svg>