<?xml version="1.0" encoding="UTF-8"?>
<svg width="567px" height="488px" viewBox="0 0 567 488" version="1.1" xmlns="http://www.w3.org/2000/svg" xmlns:xlink="http://www.w3.org/1999/xlink">
    <!-- Generator: Sketch 53.2 (72643) - https://sketchapp.com -->
    <title>Illustration_Contracts</title>
    <desc>Created with Sketch.</desc>
    <defs>
        <path d="M13.4522997,78.2844365 C22.0217437,66.6013911 26.3064657,53.5539851 26.3064657,39.1422182 C26.3064657,24.7304514 22.0217437,11.6830454 13.4522997,0 C4.48409991,11.6830454 0,24.7304514 0,39.1422182 C0,53.5539851 4.48409991,66.6013911 13.4522997,78.2844365 Z" id="path-1"></path>
        <path d="M13.3377681,109.778175 C21.8342527,93.3950542 26.082495,75.0986917 26.082495,54.8890877 C26.082495,34.6794836 21.8342527,16.3831211 13.3377681,0 C4.44592271,16.3831211 0,34.6794836 0,54.8890877 C0,75.0986917 4.44592271,93.3950542 13.3377681,109.778175 Z" id="path-3"></path>
        <path d="M13.4522997,78.2844365 C22.0217437,66.6013911 26.3064657,53.5539851 26.3064657,39.1422182 C26.3064657,24.7304514 22.0217437,11.6830454 13.4522997,0 C4.48409991,11.6830454 0,24.7304514 0,39.1422182 C0,53.5539851 4.48409991,66.6013911 13.4522997,78.2844365 Z" id="path-5"></path>
        <polygon id="path-7" points="0.344300176 37.8573555 253.629779 0.890876565 250.032193 400.741852 0.344300176 400.741852"></polygon>
        <path d="M13.4522997,101.795836 C22.0217437,86.6039862 26.3064657,69.6380136 26.3064657,50.8979178 C26.3064657,32.1578219 22.0217437,15.1918493 13.4522997,0 C4.48409991,15.1918493 0,32.1578219 0,50.8979178 C0,69.6380136 4.48409991,86.6039862 13.4522997,101.795836 Z" id="path-9"></path>
        <path d="M13.3377681,142.748183 C21.8342527,121.44467 26.082495,97.6533064 26.082495,71.3740916 C26.082495,45.0948767 21.8342527,21.3035128 13.3377681,0 C4.44592271,21.3035128 0,45.0948767 0,71.3740916 C0,97.6533064 4.44592271,121.44467 13.3377681,142.748183 Z" id="path-11"></path>
        <path d="M13.4522997,101.795836 C22.0217437,86.6039862 26.3064657,69.6380136 26.3064657,50.8979178 C26.3064657,32.1578219 22.0217437,15.1918493 13.4522997,0 C4.48409991,15.1918493 0,32.1578219 0,50.8979178 C0,69.6380136 4.48409991,86.6039862 13.4522997,101.795836 Z" id="path-13"></path>
        <path d="M13.4522997,101.795836 C22.0217437,86.6039862 26.3064657,69.6380136 26.3064657,50.8979178 C26.3064657,32.1578219 22.0217437,15.1918493 13.4522997,0 C4.48409991,15.1918493 0,32.1578219 0,50.8979178 C0,69.6380136 4.48409991,86.6039862 13.4522997,101.795836 Z" id="path-15"></path>
        <path d="M13.3377681,142.748183 C21.8342527,121.44467 26.082495,97.6533064 26.082495,71.3740916 C26.082495,45.0948767 21.8342527,21.3035128 13.3377681,0 C4.44592271,21.3035128 0,45.0948767 0,71.3740916 C0,97.6533064 4.44592271,121.44467 13.3377681,142.748183 Z" id="path-17"></path>
        <path d="M13.4522997,101.795836 C22.0217437,86.6039862 26.3064657,69.6380136 26.3064657,50.8979178 C26.3064657,32.1578219 22.0217437,15.1918493 13.4522997,0 C4.48409991,15.1918493 0,32.1578219 0,50.8979178 C0,69.6380136 4.48409991,86.6039862 13.4522997,101.795836 Z" id="path-19"></path>
    </defs>
    <g id="Page-1" stroke="none" stroke-width="1" fill="none" fill-rule="evenodd">
        <g id="Gobierto-Contratos-Proto-v2" transform="translate(-790.000000, -262.000000)">
            <g id="Illustration_Contracts" transform="translate(781.000000, 247.000000)">
                <g id="Group-14-Copy-4" transform="translate(0.347813, 330.234347)">
                    <g id="Group-13" transform="translate(24.283702, 65.641450) rotate(-16.000000) translate(-24.283702, -65.641450) translate(10.792757, 26.499231)">
                        <mask id="mask-2" fill="white">
                            <use xlink:href="#path-1"></use>
                        </mask>
                        <use id="Oval" fill="#12365B" xlink:href="#path-1"></use>
                        <rect id="Rectangle" fill="#01909E" mask="url(#mask-2)" x="12.5915493" y="-5.39892665" width="23.3843058" height="86.3828265"></rect>
                    </g>
                    <g id="Group-13-Copy" transform="translate(26.613903, 0.000000)">
                        <mask id="mask-4" fill="white">
                            <use xlink:href="#path-3"></use>
                        </mask>
                        <use id="Oval" fill="#12365B" xlink:href="#path-3"></use>
                        <rect id="Rectangle" fill="#01909E" mask="url(#mask-4)" x="12.5915493" y="-8.09838998" width="23.3843058" height="121.47585"></rect>
                    </g>
                    <g id="Group-13-Copy-2" transform="translate(57.916833, 66.499415) rotate(23.000000) translate(-57.916833, -66.499415) translate(44.425888, 27.357196)">
                        <mask id="mask-6" fill="white">
                            <use xlink:href="#path-5"></use>
                        </mask>
                        <use id="Oval" fill="#12365B" xlink:href="#path-5"></use>
                        <rect id="Rectangle" fill="#01909E" mask="url(#mask-6)" x="12.5915493" y="-5.39892665" width="23.3843058" height="86.3828265"></rect>
                    </g>
                    <rect id="Rectangle" fill="#8BCDD3" x="14.92175" y="96.2808587" width="49.4668008" height="10.7978533"></rect>
                    <polygon id="Rectangle-Copy-40" fill="#D5E9EB" points="16.7205428 107.078712 61.6903617 107.078712 57.4415043 143.071556 22.1094554 143.071556"></polygon>
                </g>
                <g id="Group-27" transform="translate(100.028169, 53.998211)">
                    <mask id="mask-8" fill="white">
                        <use xlink:href="#path-7"></use>
                    </mask>
                    <use id="Path-83" fill="#E6EFF0" xlink:href="#path-7"></use>
                    <ellipse id="Oval-Copy-23" fill="#D5E9EB" mask="url(#mask-8)" transform="translate(244.937808, 10.077605) rotate(38.000000) translate(-244.937808, -10.077605) " cx="244.937808" cy="10.0776047" rx="36.8818533" ry="40.4847063"></ellipse>
                </g>
                <polygon id="Path-88" fill="#D5E9EB" points="295.631072 189.617967 352.758551 183.441363 352.758551 157.468694 295.631072 165.117174"></polygon>
                <ellipse id="Oval-Copy-22" fill="#01909E" transform="translate(333.867467, 53.828330) rotate(38.000000) translate(-333.867467, -53.828330) " cx="333.867467" cy="53.8283298" rx="35.0827386" ry="40.4847062"></ellipse>
                <ellipse id="Oval" fill="#F9F9F9" transform="translate(333.867467, 53.828330) rotate(38.000000) translate(-333.867467, -53.828330) " cx="333.867467" cy="53.8283298" rx="28.7858368" ry="33.2874251"></ellipse>
                <polygon id="Path-73" fill="#FFFFFF" points="117.745575 206.052004 239.912412 193.181417 239.912412 122.032966 117.745575 139.193185"></polygon>
                <polygon id="Path-84" fill="#F9F9F9" points="117.745575 354.529517 117.745575 432.813953 325.24967 430.46071 325.24967 344.74572"></polygon>
                <polygon id="Path-85" fill="#F9F9F9" points="117.745575 321.541935 117.745575 334.297602 325.24967 323.875846 325.24967 309.554279"></polygon>
                <polygon id="Path-86" fill="#F9F9F9" points="117.745575 262.747764 117.745575 302.339893 325.24967 289.742397 325.24967 244.751342"></polygon>
                <path d="M117.745575,223.333139 C117.745575,223.333139 117.745575,231.072421 117.745575,246.550984 L325.24967,227.654741 C325.24967,209.303311 325.24967,200.127596 325.24967,200.127596 C325.24967,200.127596 117.745575,223.333139 117.745575,223.333139 Z" id="Path-87" fill="#F9F9F9"></path>
                <polygon id="Path-96" fill="#F8B205" points="143.153523 211.896448 146.786241 251.699472 205.758186 248.350626 203.302412 206.052004"></polygon>
                <path d="" id="Path-109" stroke="#979797" stroke-width="0.899999976"></path>
                <polygon id="Path-110" fill="#01909E" points="261.710478 313.189591 261.710478 326.826626 325.24967 323.856513 325.24967 309.554279"></polygon>
                <path d="M334.770624,55.7695767 L355.870428,67.4725235" id="Path-81" stroke="#8BCDD3" stroke-width="2.69999993"></path>
                <ellipse id="Oval" fill="#005161" cx="332.971831" cy="54.8890877" rx="3.59758551" ry="3.59928444"></ellipse>
                <rect id="Rectangle" fill="#005161" x="331.173038" y="38.6923077" width="3.59758551" height="16.19678"></rect>
                <polygon id="Path-72" stroke="#01909E" stroke-width="0.899999976" points="126.077288 210.278018 248.015763 196.780701 248.015763 126.382687 126.077288 142.720064"></polygon>
                <g id="Group-23" transform="translate(18.183099, 43.191413)">
                    <polygon id="Path-68" fill="#BAD4D7" opacity="0.425967262" points="82.1893706 149.126017 170.472503 136.772809 180.622332 145.77102 180.622332 51.3636167 82.1893706 66.3424747"></polygon>
                    <polygon id="Path-67" fill="#F8B205" points="13.9019979 27.6431372 13.9019979 127.679694 153.487613 109.22106 171.740792 127.679694 171.740792 0.37961203"></polygon>
                    <polygon id="Path-66" fill="#D5E9EB" points="5.32435629 41.0051291 5.32435629 121.417853 155.286406 101.154304 155.286406 14.3778057"></polygon>
                    <polygon id="Path-66-Copy" fill="#F2F2F2" points="0.827374403 36.5060236 0.827374403 116.918748 150.789424 96.6551983 150.789424 9.87870011"></polygon>
                    <path d="M37.0057647,44.7064563 L137.230848,27.6888312" id="Path-111" stroke="#8BCDD3" stroke-width="1.79999995"></path>
                    <path d="M37.0057647,51.9050251 L137.230848,33.987579" id="Path-111-Copy" stroke="#8BCDD3" stroke-width="1.79999995"></path>
                    <path d="M13.9019979,62.6239025 L137.230848,41.1861478" id="Path-111-Copy-2" stroke="#8BCDD3" stroke-width="1.79999995"></path>
                    <path d="M13.9019979,70.7222924 L137.230848,49.2845378" id="Path-111-Copy-3" stroke="#8BCDD3" stroke-width="1.79999995"></path>
                    <path d="M13.9019979,78.8206824 L137.230848,57.3829278" id="Path-111-Copy-4" stroke="#8BCDD3" stroke-width="1.79999995"></path>
                    <path d="M13.9019979,87.8188935 L82.1893706,75.5058873" id="Path-111-Copy-5" stroke="#8BCDD3" stroke-width="1.79999995"></path>
                    <path d="M91.2360334,96.0017716 L97.1348089,78.7369832 L97.1348089,92.3502924 L100.551022,83.1912735 L102.804344,90.3626017 C104.508571,85.5817162 105.360685,83.1912735 105.360685,83.1912735 C105.360685,83.1912735 107.803284,86.1041742 111.078966,86.1041742 C113.262754,86.1041742 117.89324,85.3810096 124.970424,83.9346804 C125.60047,78.315485 122.649033,75.9830386 116.116113,76.937341 C106.316732,78.3687947 105.019459,91.0743742 111.836075,91.0743742 C116.380486,91.0743742 118.362554,87.5568118 117.78228,80.521687" id="Path-112" stroke="#01909E" stroke-width="0.899999976"></path>
                    <polygon id="Star" fill="#F8B205" points="22.9346076 52.4667177 21.53555 54.7060575 21.2626291 52.022702 19.0579419 53.3050203 19.9736807 50.7923735 17.4684312 50.8239066 19.363045 49.0575856 17.1311557 47.8311097 19.5706112 47.2157574 18.123381 45.0122433 20.5488285 45.6888295 20.2178004 43.0130757 22.073599 44.8266026 22.9346076 42.2915921 23.7956163 44.8266026 25.6514148 43.0130757 25.3203868 45.6888295 27.7458343 45.0122433 26.2986041 47.2157574 28.7380596 47.8311097 26.5061703 49.0575856 28.4007841 50.8239066 25.8955346 50.7923735 26.8112734 53.3050203 24.6065862 52.022702 24.3336653 54.7060575"></polygon>
                </g>
                <g id="Group-26" transform="translate(225.044266, 171.865832)">
                    <polyline id="Path-82" stroke="#01909E" stroke-width="0.899999976" points="87.4706894 0.7728444 48.943324 48.1922745 9.63513503 51.467307"></polyline>
                    <polygon id="Rectangle" fill="#01909E" transform="translate(5.396378, 51.739714) rotate(-4.000000) translate(-5.396378, -51.739714) " points="0.899519045 47.6906759 9.89350349 47.6903803 9.89323749 55.7887517 0.899253045 55.7890472"></polygon>
                </g>
                <g id="Group-26-Copy" transform="translate(290.000000, 257.391132)">
                    <path d="M90.6196641,0.957705585 L7.5,6.85642697" id="Path-82" stroke="#01909E" stroke-width="0.899999976"></path>
                    <polygon id="Rectangle" fill="#01909E" transform="translate(4.768638, 6.962041) rotate(-4.000000) translate(-4.768638, -6.962041) " points="0.271778453 2.91300356 9.2657629 2.912708 9.2654969 11.0110794 0.271512453 11.0113749"></polygon>
                </g>
                <g id="Group-25" transform="translate(278.108652, 106.178891)">
                    <polygon id="Path-77" fill="#F8B205" points="9.28205169 13.5588278 9.28205169 71.0858676 96.2301426 60.7379249 96.2301426 0.655533738"></polygon>
                    <polygon id="Path-78-Copy" fill="#D5E9EB" points="2.28362362 27.2064076 87.8492439 15.7495056 87.8492439 49.0068586 2.60508756 58.4303758"></polygon>
                    <polygon id="Path-78" fill="#F9F9F9" points="0.48483086 25.4067654 86.0504511 13.9498634 86.0504511 47.2072164 0.8062948 56.6307336"></polygon>
                    <path d="M41.9514833,28.0868966 L81.4305049,22.9665278" id="Path-79" stroke="#01909E" stroke-width="1.79999995"></path>
                    <path d="M26.8606836,34.2116555 L81.4305049,27.375124" id="Path-80" stroke="#8BCDD3" stroke-width="1.79999995"></path>
                    <path d="M26.8606836,37.8109399 L81.4305049,30.9744085" id="Path-80-Copy" stroke="#8BCDD3" stroke-width="1.79999995"></path>
                    <path d="M26.8606836,41.4102244 L81.4305049,34.5736929" id="Path-80-Copy-2" stroke="#8BCDD3" stroke-width="1.79999995"></path>
                    <path d="M26.8606836,45.9093299 L81.4305049,39.0727985" id="Path-80-Copy-3" stroke="#8BCDD3" stroke-width="1.79999995"></path>
                    <polygon id="Path-113" fill="#01909E" points="6.01998318 24.6769788 6.01998318 45.9093299 10.7593805 39.0727985 15.8351731 44.0912343 15.1591986 23.4371984"></polygon>
                </g>
                <g id="Group-25-Copy" transform="translate(377.000000, 216.000000)">
                    <polygon id="Path-77" fill="#F8B205" points="9.28205169 13.5588278 9.28205169 71.0858676 96.2301426 60.7379249 96.2301426 0.655533738"></polygon>
                    <polygon id="Path-78-Copy" fill="#D5E9EB" points="2.28362362 27.2064076 87.8492439 15.7495056 87.8492439 49.0068586 2.60508756 58.4303758"></polygon>
                    <polygon id="Path-78" fill="#F9F9F9" points="0.48483086 25.4067654 86.0504511 13.9498634 86.0504511 47.2072164 0.8062948 56.6307336"></polygon>
                    <path d="M41.9514833,28.0868966 L81.4305049,22.9665278" id="Path-79" stroke="#01909E" stroke-width="1.79999995"></path>
                    <path d="M26.8606836,34.2116555 L81.4305049,27.375124" id="Path-80" stroke="#8BCDD3" stroke-width="1.79999995"></path>
                    <path d="M26.8606836,37.8109399 L81.4305049,30.9744085" id="Path-80-Copy" stroke="#8BCDD3" stroke-width="1.79999995"></path>
                    <path d="M26.8606836,41.4102244 L81.4305049,34.5736929" id="Path-80-Copy-2" stroke="#8BCDD3" stroke-width="1.79999995"></path>
                    <path d="M27,45.8365315 L52.8954135,42.4272015" id="Path-80-Copy-3" stroke="#8BCDD3" stroke-width="1.79999995"></path>
                </g>
                <g id="Group-25-Copy-2" transform="translate(377.000000, 216.000000)">
                    <polygon id="Path-77" fill="#F8B205" points="9.28205169 13.5588278 9.28205169 71.0858676 96.2301426 60.7379249 96.2301426 0.655533738"></polygon>
                    <polygon id="Path-78-Copy" fill="#D5E9EB" points="2.28362362 27.2064076 87.8492439 15.7495056 87.8492439 49.0068586 2.60508756 58.4303758"></polygon>
                    <polygon id="Path-78" fill="#F9F9F9" points="0.48483086 25.4067654 86.0504511 13.9498634 86.0504511 47.2072164 0.8062948 56.6307336"></polygon>
                    <path d="M41.9514833,28.0868966 L81.4305049,22.9665278" id="Path-79" stroke="#01909E" stroke-width="1.79999995"></path>
                    <path d="M26.8606836,34.2116555 L81.4305049,27.375124" id="Path-80" stroke="#8BCDD3" stroke-width="1.79999995"></path>
                    <path d="M26.8606836,37.8109399 L81.4305049,30.9744085" id="Path-80-Copy" stroke="#8BCDD3" stroke-width="1.79999995"></path>
                    <path d="M26.8606836,41.4102244 L81.4305049,34.5736929" id="Path-80-Copy-2" stroke="#8BCDD3" stroke-width="1.79999995"></path>
                    <path d="M27,45.8365315 L52.8954135,42.4272015" id="Path-80-Copy-3" stroke="#8BCDD3" stroke-width="1.79999995"></path>
                </g>
                <g id="Group-21" transform="translate(33.472837, 215.957066)">
                    <path d="M40.3990584,55.7889088 L40.3990584,96.0365713 L68.4981687,98.9302343 C70.7700814,69.1670108 71.9060378,54.786569 71.9060378,55.7889088 C71.9060378,56.7912486 61.4037113,56.7912486 40.3990584,55.7889088 Z" id="Path-102" fill="#01909E"></path>
                    <polygon id="Path-103" fill="#005161" points="71.9060378 55.7399245 42.8798641 52.3693249 42.8798641 55.7889088"></polygon>
                    <path d="M41.1869086,44.0912343 C41.1869086,42.2915921 41.1869086,38.3923673 41.1869086,32.3935599 C45.5293067,31.2295335 47.7005058,30.0297721 47.7005058,28.7942755 C47.7005058,27.5587789 47.7005058,24.5593752 47.7005058,19.7960644 L50.1246601,19.2556912 L40.3990584,6.86091627 C34.6630643,1.92376305 29.7122854,2.09548184 25.5467217,7.37607265 C19.2983762,15.2969589 21.7216522,28.7942755 25.5467217,28.7942755 C28.0967681,28.7942755 30.1417823,29.994037 31.6817644,32.3935599 L30.1675463,41.391771 C37.5137878,44.9910555 41.1869086,45.8908766 41.1869086,44.0912343 Z" id="Path-97" fill="#FECA9A"></path>
                    <path d="M28.857976,17.5913269 C33.249625,13.6830417 36.7942447,10.914259 39.491835,9.28497907 C39.491835,8.59717064 39.1112783,7.41788562 38.350165,5.74712403 L41.1432123,7.72273224 C39.935424,4.07511757 37.022706,1.68335674 32.4050583,0.547449757 C27.7874105,-0.588457229 22.9817003,2.14000424 17.9879276,8.73283416 C14.8335993,3.54421726 11.2872489,1.77181572 7.34887646,3.41562954 C1.44131783,5.88135028 0.456724723,10.6287738 0.456724723,14.2832042 C0.456724723,17.9376347 6.10957149,20.6958855 8.60926103,20.6958855 C10.2757207,20.6958855 12.5953553,20.2158207 15.5681648,19.2556912 C21.1589439,26.9322287 26.2400064,30.7704975 30.8113525,30.7704975 C30.5203088,29.7865739 31.6034556,26.5344677 30.8113525,25.7674847 C26.4566579,21.5508913 28.0873591,21.3382383 30.8113525,21.3382383 C31.6588246,21.3382383 31.0076991,20.0892678 28.857976,17.5913269 Z" id="Path-98" fill="#12365B"></path>
                    <path d="M41.7929471,44.0912343 C57.1681751,40.7579127 67.4687814,37.9749698 72.6947663,35.7424059 C77.9207511,33.5098419 86.8705062,30.3285408 99.5440318,26.1985025 L103.936494,23.3953488 C106.622972,17.9964222 108.85741,15.2969589 110.639808,15.2969589 C112.422205,15.2969589 113.7585,17.6045079 114.648691,22.219606 L113.313404,27.7362827 C110.193037,27.8417305 108.090054,28.1943948 107.004454,28.7942755 C105.376055,29.6940966 87.311714,40.0789461 80.0032401,42.5350008 C72.6947663,44.9910555 51.5642213,53.0894454 50.1246601,53.0894454 C49.1649526,53.0894454 46.387715,50.0900417 41.7929471,44.0912343 Z" id="Path-99" fill="#FECA9A"></path>
                    <path d="M30.1745728,41.391771 C24.5355418,44.6911151 21.7160263,50.0150566 21.7160263,57.3635957 C21.7160263,68.3864043 25.9452996,77.3846154 25.9452996,86.3828265 C25.9452996,92.3816339 25.4362279,98.5327547 24.4180847,104.836189 L46.9881909,104.836189 L48.3135709,69.7756789 C50.7371396,66.599943 51.948924,63.7373286 51.948924,61.1878354 C51.948924,58.6383423 51.340836,55.938879 50.1246601,53.0894454 L41.7929471,44.0912343 L30.1745728,41.391771 Z" id="Path-100" fill="#12365B"></path>
                    <path d="M29.9848564,44.9910555 C33.3171903,45.1061693 37.2933303,44.0912343 38.6740443,53.7449792 C39.5945202,60.1808091 41.3413181,68.8237197 43.9144377,79.6737111 C46.292097,78.8635206 49.3491064,77.6795763 53.0854659,76.1218781 C56.8218255,74.56418 60.1415701,72.7255807 63.0446998,70.6060802 C62.8175086,65.8533141 63.688506,63.0954152 65.6576922,62.3323833 C67.6268785,61.5693514 69.7096603,60.5879547 71.9060378,59.3881932 L71.9060378,71.8257596 C69.396394,71.5744424 67.7275921,72.2276328 66.8996322,73.7853309 C66.0716722,75.3430291 57.7027772,83.1587604 41.7929471,97.2325249 L38.6740443,96.0365713 C31.7950673,82.9493294 27.9392566,72.9695752 27.1066123,66.0973086 C25.8576459,55.7889088 23.054937,45.1061693 29.9848564,44.9910555 Z" id="Path-101" fill="#FECA9A"></path>
                    <path d="M25.4785866,104.836189 C25.4785866,104.836189 24.2243999,109.337638 21.7160263,118.340536 C21.7160263,128.880628 21.7160263,134.887636 21.7160263,136.361562 C21.7160263,137.835488 17.3471045,163.189822 8.60926103,212.424565 C23.9610672,215.379447 35.0222959,216.856887 41.7929471,216.856887 C48.5635984,216.856887 58.6012953,215.379447 71.9060378,212.424565 C64.4977286,169.840063 59.682796,144.485728 57.4612401,136.361562 C55.2396842,128.237396 51.5965726,117.929875 46.5319053,105.438999 C32.4963595,105.037126 25.4785866,104.836189 25.4785866,104.836189 Z" id="Path-104" fill="#F8B205"></path>
                    <polygon id="Path-105" fill="#FECA9A" points="24.3539676 215.499247 15.5681648 270.018389 19.9610662 270.018389 34.6548667 216.856887"></polygon>
                    <polygon id="Path-106" fill="#FECA9A" points="36.2077308 216.856887 33.3294867 277.824161 38.6740443 277.824161 47.4923447 216.856887"></polygon>
                    <polygon id="Path-107" fill="#01909E" points="14.3191984 271.246855 20.2645246 271.246855 20.2645246 281.644007 23.5968585 286.335555 17.9879276 286.335555 10.9859862 277.824161"></polygon>
                    <polygon id="Path-108" fill="#01909E" points="33.3294867 280.210796 38.6740443 280.210796 50.1246601 285.303045 33.0923412 285.303045"></polygon>
                </g>
                <g id="Group-22" transform="translate(141.400402, 206.958855)">
                    <polygon id="Path-89" fill="#12365B" points="10.2236073 109.431955 41.3529104 109.431955 44.91185 127.338747 51.1320894 279.0166 41.3529104 279.0166 26.4882773 156.568873 16.1417057 279.0166 5.38583847 279.0166 7.18463122 143.971377 5.38583847 127.338747"></polygon>
                    <path d="M41.7340999,281.595677 C41.7340999,281.595677 41.7340999,286.17504 41.7340999,295.333766 L68.5078302,295.333766 L48.5234886,286.634324 L48.5234886,281.595677 C43.9972295,281.595677 41.7340999,281.595677 41.7340999,281.595677 Z" id="Path-90" fill="#01909E"></path>
                    <path d="M6.66730264,281.595677 L6.66730264,287.748555 L0.607795209,295.333766 C9.54496117,296.146886 14.0135442,296.146886 14.0135442,295.333766 C14.0135442,294.520646 14.0135442,289.941283 14.0135442,281.595677 L6.66730264,281.595677 Z" id="Path-91" fill="#01909E"></path>
                    <path d="M41.7340999,109.841005 L45.7646956,89.0822898 L51.1320894,99.1384937 C53.3958045,100.482953 56.1660156,100.482953 59.4427227,99.1384937 C62.7194299,97.7940344 64.3577834,95.7155414 64.3577834,92.9030146 L51.1320894,55.7889088 C47.5790053,50.7678367 43.8206878,47.768433 39.857137,46.7906977 C35.8935861,45.8129624 29.1598242,43.4134394 19.6558511,39.5921288 C6.95714718,45.6442459 0.607795209,53.1427552 0.607795209,62.0876565 C0.607795209,71.0325579 3.70298353,86.8139908 9.89336016,109.431955 L41.7340999,109.841005 Z" id="Path-92" fill="#01909E"></path>
                    <path d="M19.6558511,39.5921288 L19.6558511,30.8434775 L14.0135442,20.6958855 L20.9250189,7.81826809 L30.2703094,10.3163084 L31.6800078,13.4973166 C33.2655891,15.6977337 34.5822226,17.2289234 35.6299081,18.0908858 C36.6775936,18.9528482 38.0494878,19.8211815 39.7455907,20.6958855 L37.2845471,23.7051984 C39.3035046,28.2238645 39.6062311,31.2681977 38.1927267,32.8381981 C36.7792222,34.4081985 34.6083159,35.5997585 31.6800078,36.412878 L31.6800078,44.740617 L19.6558511,39.5921288 Z" id="Path-93" fill="#FECA9A"></path>
                    <path d="M24.2042145,18.6699699 C29.8719927,16.460253 32.7058818,13.6844865 32.7058818,10.3426704 C32.7058818,5.32994623 29.4108764,-0.0799645712 25.7566394,0.609400331 C22.1024025,1.29876523 13.5440838,4.07696384 10.098008,9.60985266 C6.6519321,15.1427415 5.70466746,19.3593348 7.90133771,22.7011509 C10.098008,26.042967 16.2703791,34.078967 16.2703791,34.078967 C16.2703791,34.078967 19.9066106,38.1628719 23.4848731,34.9805456 C25.8703815,32.8589947 26.8715162,31.0968451 26.4882773,29.6940966 C28.260135,34.5452806 29.7393669,37.2447439 30.9259728,37.7924866 C32.7058818,38.6141006 36.3144462,41.0543381 39.7455907,38.9058395 C43.1767352,36.7573408 43.7226091,33.4779147 41.7340999,29.6940966 C40.4084271,27.1715512 39.0463042,24.8405693 37.6477311,22.7011509 C35.9183254,22.9319644 34.6623324,23.7632444 33.8797521,25.1949911 C32.7058818,27.342611 33.6715911,30.3658869 32.7058818,30.3658869 C32.0620756,30.3658869 29.4276176,27.4839403 24.8025079,21.7200471 L24.2042145,18.6699699 Z" id="Path-94" fill="#12365B"></path>
                    <path d="M23.3900149,24.2951699 C24.9617628,26.3842078 25.4856787,27.6563181 24.9617628,28.1115011 C24.4378468,28.566684 23.1376452,27.9306288 21.061158,26.2033355 C19.7612491,24.0032846 19.5340579,22.5353636 20.3795841,21.7995723 C21.2251104,21.0637811 22.2285873,21.895647 23.3900149,24.2951699 Z" id="Path-95" fill="#FECA9A"></path>
                </g>
                <path d="M274.960765,319.886404 L309.587525,318.190452" id="Path-114" stroke="#F9F9F9" stroke-width="2.69999993"></path>
                <g id="Group-14-Copy-5" transform="translate(320.331717, 305.939177)">
                    <g id="Group-13" transform="translate(27.881288, 85.017164) rotate(-16.000000) translate(-27.881288, -85.017164) translate(14.390342, 34.119246)">
                        <mask id="mask-10" fill="white">
                            <use xlink:href="#path-9"></use>
                        </mask>
                        <use id="Oval" fill="#12365B" xlink:href="#path-9"></use>
                        <rect id="Rectangle" fill="#01909E" mask="url(#mask-10)" x="12.5915493" y="-7.02040245" width="23.3843058" height="112.326439"></rect>
                    </g>
                    <g id="Group-13-Copy" transform="translate(30.211488, 0.323373)">
                        <mask id="mask-12" fill="white">
                            <use xlink:href="#path-11"></use>
                        </mask>
                        <use id="Oval" fill="#12365B" xlink:href="#path-11"></use>
                        <rect id="Rectangle" fill="#01909E" mask="url(#mask-12)" x="12.5915493" y="-10.5306037" width="23.3843058" height="157.959055"></rect>
                    </g>
                    <g id="Group-13-Copy-2" transform="translate(61.514419, 86.145374) rotate(23.000000) translate(-61.514419, -86.145374) translate(48.023473, 35.247457)">
                        <mask id="mask-14" fill="white">
                            <use xlink:href="#path-13"></use>
                        </mask>
                        <use id="Oval" fill="#12365B" xlink:href="#path-13"></use>
                        <rect id="Rectangle" fill="#01909E" mask="url(#mask-14)" x="12.5915493" y="-7.02040245" width="23.3843058" height="112.326439"></rect>
                    </g>
                    <rect id="Rectangle" fill="#8BCDD3" x="18.5193355" y="127.774597" width="49.4668008" height="10.7978533"></rect>
                    <polygon id="Rectangle-Copy-40" fill="#D5E9EB" points="20.3181283 138.572451 65.2879472 138.572451 61.0390898 174.565295 25.7070409 174.565295"></polygon>
                </g>
                <g id="Group-14-Copy-6" transform="translate(343.000000, 306.000000)">
                    <g id="Group-13" transform="translate(27.881288, 85.017164) rotate(-16.000000) translate(-27.881288, -85.017164) translate(14.390342, 34.119246)">
                        <mask id="mask-16" fill="white">
                            <use xlink:href="#path-15"></use>
                        </mask>
                        <use id="Oval" fill="#12365B" xlink:href="#path-15"></use>
                        <rect id="Rectangle" fill="#01909E" mask="url(#mask-16)" x="12.5915493" y="-7.02040245" width="23.3843058" height="112.326439"></rect>
                    </g>
                    <g id="Group-13-Copy" transform="translate(30.211488, 0.323373)">
                        <mask id="mask-18" fill="white">
                            <use xlink:href="#path-17"></use>
                        </mask>
                        <use id="Oval" fill="#12365B" xlink:href="#path-17"></use>
                        <rect id="Rectangle" fill="#01909E" mask="url(#mask-18)" x="12.5915493" y="-10.5306037" width="23.3843058" height="157.959055"></rect>
                    </g>
                    <g id="Group-13-Copy-2" transform="translate(61.514419, 86.145374) rotate(23.000000) translate(-61.514419, -86.145374) translate(48.023473, 35.247457)">
                        <mask id="mask-20" fill="white">
                            <use xlink:href="#path-19"></use>
                        </mask>
                        <use id="Oval" fill="#12365B" xlink:href="#path-19"></use>
                        <rect id="Rectangle" fill="#01909E" mask="url(#mask-20)" x="12.5915493" y="-7.02040245" width="23.3843058" height="112.326439"></rect>
                    </g>
                    <rect id="Rectangle" fill="#8BCDD3" x="18.5193355" y="127.774597" width="49.4668008" height="10.7978533"></rect>
                    <polygon id="Rectangle-Copy-40" fill="#D5E9EB" points="20.3181283 138.572451 65.2879472 138.572451 61.0390898 174.565295 25.7070409 174.565295"></polygon>
                </g>
                <g id="Group-24" transform="translate(160.287726, 16.196780)">
                    <polygon id="Path-69" stroke="#F8B205" stroke-width="0.899999976" fill="#F9F9F9" points="38.0293598 15.2969589 38.0293598 39.5727967 123.840909 23.8768937 123.840909 0.432335924"></polygon>
                    <path d="M59.8449918,19.1554691 C59.8449918,19.1554691 79.0321146,15.7430616 117.40636,8.91824652" id="Path-74" stroke="#8BCDD3" stroke-width="1.79999995"></path>
                    <path d="M117.40636,12.4076895 L45.4704595,25.2556235" id="Path-75" stroke="#8BCDD3" stroke-width="1.79999995"></path>
                    <path d="M45.4704595,28.9682643 L117.40636,16.6097838" id="Path-76" stroke="#8BCDD3" stroke-width="1.79999995"></path>
                    <path d="M0.768527179,77.176356 C0.768527179,77.176356 3.43216919,76.8246437 8.7594532,76.1212191 L8.7594532,83.7725544 L0.768527179,84.674133 C0.768527179,79.675615 0.768527179,77.176356 0.768527179,77.176356 Z" id="Path-71" fill="#01909E"></path>
                    <path d="M45.4704595,39.5727967 C45.4704595,39.5727967 45.4704595,51.1164002 45.4704595,74.2036072 L7.60095338,79.7747652" id="Path-70" stroke="#01909E" stroke-width="0.899999976"></path>
                </g>
                <g id="Group-24-Copy" transform="translate(412.000000, 151.000000)">
                    <path d="M7.39589932,37.8806152 C7.39589932,37.8806152 7.39589932,49.7537435 7.39589932,73.5" id="Path-70" stroke="#01909E" stroke-width="0.899999976"></path>
                    <polygon id="Path-69" stroke="#F8B205" stroke-width="0.899999976" fill="#F9F9F9" points="0.0293597523 15.2969589 0.0293597523 39.5727967 85.8409087 23.8768937 85.8409087 0.432335924"></polygon>
                    <path d="M21.8449918,19.1554691 C21.8449918,19.1554691 41.0321146,15.7430616 79.40636,8.91824652" id="Path-74" stroke="#8BCDD3" stroke-width="1.79999995"></path>
                    <path d="M79.40636,12.4076895 L7.47045948,25.2556235" id="Path-75" stroke="#8BCDD3" stroke-width="1.79999995"></path>
                    <path d="M7.47045948,28.9682643 L79.40636,16.6097838" id="Path-76" stroke="#8BCDD3" stroke-width="1.79999995"></path>
                </g>
                <g id="Group-24-Copy-2" transform="translate(473.000000, 216.000000)">
                    <path d="M16.5849609,33.1416016 C12.6401078,33.8549709 7.27845415,34.6411037 0.5,35.5" id="Path-70" stroke="#01909E" stroke-width="0.899999976"></path>
                    <polygon id="Path-69" stroke="#01909E" stroke-width="0.899999976" fill="#F9F9F9" points="16.0293598 15.2969589 16.0293598 39.5727967 101.840909 26.8768937 101.840909 0.432335924"></polygon>
                    <path d="M23.4726486,29.9682452 C23.4726486,29.9682452 42.6597714,26.5558377 81.0340168,19.7310227" id="Path-74" stroke="#8BCDD3" stroke-width="1.79999995" transform="translate(52.253333, 24.849634) rotate(-180.000000) translate(-52.253333, -24.849634) "></path>
                    <path d="M95.4085492,13.6308682 L23.4726486,26.4788022" id="Path-75" stroke="#8BCDD3" stroke-width="1.79999995" transform="translate(59.440599, 20.054835) rotate(-180.000000) translate(-59.440599, -20.054835) "></path>
                    <path d="M23.4726486,22.276708 L95.4085492,9.91822742" id="Path-76" stroke="#01909E" stroke-width="1.79999995" transform="translate(59.440599, 16.097468) rotate(-180.000000) translate(-59.440599, -16.097468) "></path>
                </g>
            </g>
        </g>
    </g>
</svg>