<?xml version="1.0" encoding="UTF-8"?>
<svg width="478px" height="146px" viewBox="0 0 478 146" version="1.1" xmlns="http://www.w3.org/2000/svg" xmlns:xlink="http://www.w3.org/1999/xlink">
    <defs></defs>
    <g id="Page-1" stroke="none" stroke-width="1" fill="none" fill-rule="evenodd">
        <g id="populate" fill-rule="nonzero">
            <polygon id="Shape" fill="#C43B0D" points="390.547 50.227 404.491 50.227 404.491 36.283 404.491 22.339 404.491 13.944 404.491 0 390.547 0 390.547 13.944 390.547 22.339 390.547 36.283"></polygon>
            <path d="M472.492,36.287 C472.492,23.95 462.507,13.949 450.189,13.949 L450.189,27.91 C454.808,27.91 458.553,31.661 458.553,36.287 L458.554,36.287 L458.554,43.821 L441.746,43.821 L441.746,55.763 L472.463,55.763 L472.463,50.214 L472.463,43.821 L472.463,36.287 L472.492,36.287 L472.492,36.287 Z M404.491,27.888 L418.435,27.888 L418.435,13.944 L404.491,13.944 L404.491,27.888 L404.491,27.888 Z M351.611,27.91 L351.611,13.948 C339.293,13.948 329.307,23.949 329.307,36.286 L329.307,50.23 L329.307,64.174 L343.251,64.174 L343.251,50.231 L343.251,36.287 L343.247,36.287 C343.247,31.661 346.991,27.91 351.611,27.91 L351.611,27.91 Z M311.949,86.482 C317.64,86.428 322.808,84.241 326.724,80.695 L316.904,70.727 C315.511,71.826 313.779,72.508 311.874,72.54 C307.291,72.499 303.586,68.772 303.586,64.171 L289.646,64.171 C289.646,76.508 299.631,86.509 311.949,86.509 L311.949,86.482 L311.949,86.482 Z M275.786,64.175 L275.786,50.231 L261.842,50.231 L261.842,64.175 L261.846,64.175 C261.846,68.802 258.102,72.552 253.482,72.552 L253.482,86.514 C265.8,86.514 275.786,76.512 275.786,64.175 L275.786,64.175 Z M205.843,50.231 L219.787,50.231 L219.787,36.287 C219.787,23.95 209.802,13.949 197.484,13.949 L197.484,27.91 C202.103,27.91 205.848,31.661 205.848,36.287 L205.843,36.287 L205.843,50.231 L205.843,50.231 Z M197.484,72.552 C192.879,72.552 189.148,68.824 189.124,64.218 L189.124,64.175 L189.12,64.175 L175.18,64.175 L175.18,78.119 L175.18,92.063 L175.18,106.007 L175.18,119.951 L189.124,119.951 L189.124,106.007 L189.124,92.063 L189.124,84.876 C191.708,85.924 194.525,86.514 197.484,86.514 L197.484,72.552 L197.484,72.552 Z M150.137,64.175 L164.081,64.175 L164.081,50.231 L164.081,36.287 C164.081,23.95 154.096,13.949 141.778,13.949 L141.778,27.91 C146.397,27.91 150.141,31.661 150.141,36.287 L150.137,36.287 L150.137,50.231 L150.137,64.175 L150.137,64.175 Z M133.414,64.175 L133.418,64.175 L133.418,50.231 L119.474,50.231 L119.474,64.175 C119.474,76.512 129.46,86.514 141.778,86.514 L141.778,72.552 C137.158,72.552 133.414,68.802 133.414,64.175 L133.414,64.175 Z M108.27,64.175 L108.27,50.231 L94.326,50.231 L94.326,64.175 L94.33,64.175 C94.33,68.802 90.586,72.552 85.966,72.552 L85.966,86.514 C98.284,86.514 108.27,76.512 108.27,64.175 L108.27,64.175 Z M85.966,27.91 L85.966,13.948 C73.648,13.948 63.663,23.949 63.663,36.286 L63.663,50.23 L63.663,64.174 L77.607,64.174 L77.607,50.231 L77.607,36.287 L77.603,36.287 C77.603,31.661 81.347,27.91 85.966,27.91 L85.966,27.91 Z" id="Shape" fill="#565141"></path>
            <path d="M471.994,64.21 L458.032,64.21 C458.032,68.701 454.479,72.336 450.031,72.536 C445.487,72.45 441.825,68.748 441.825,64.175 L441.829,64.175 L441.829,55.763 L427.885,55.763 L427.885,64.175 C427.885,76.332 437.586,86.2 449.655,86.487 L449.655,86.514 C449.745,86.514 449.833,86.501 449.923,86.5 L450.189,86.514 L450.189,86.487 C462.277,86.201 471.994,76.348 471.994,64.21 L471.994,64.21 Z M366.942,80.371 C370.94,84.169 376.328,86.514 382.274,86.514 L382.274,72.552 C377.664,72.552 373.929,68.817 373.913,64.204 L373.914,64.175 L373.914,50.231 L359.97,50.231 L359.97,64.175 L359.972,64.204 C359.956,68.817 356.22,72.552 351.611,72.552 L351.611,86.514 C357.556,86.514 362.944,84.169 366.942,80.371 L366.942,80.371 Z M289.625,34.966 L303.569,34.966 L303.569,22.62 L303.569,14.225 L303.555,14.225 L303.555,0.878 L289.611,0.878 L289.611,14.822 L289.625,14.822 L289.625,22.62 L289.625,34.966 L289.625,34.966 Z M231.179,64.175 L245.123,64.175 L245.123,50.231 L245.123,36.287 L245.123,22.343 L245.123,13.949 L231.179,13.949 L231.179,22.343 L231.179,36.287 L231.179,50.231 L231.179,64.175 L231.179,64.175 Z M197.484,27.91 L197.484,13.949 C185.166,13.949 175.18,23.95 175.18,36.287 L175.18,50.231 L175.18,64.175 L189.124,64.175 L189.124,50.231 L189.124,36.287 L189.12,36.287 C189.12,31.661 192.864,27.91 197.484,27.91 L197.484,27.91 Z M164.081,64.175 L150.142,64.175 C150.142,68.802 146.397,72.552 141.778,72.552 L141.778,86.514 C154.096,86.514 164.081,76.512 164.081,64.175 L164.081,64.175 Z M94.326,50.231 L108.247,50.231 L108.247,36.287 C108.247,23.95 98.262,13.949 85.944,13.949 L85.944,27.91 C90.563,27.91 94.308,31.661 94.308,36.287 L94.303,36.287 L94.303,50.231 L94.326,50.231 L94.326,50.231 Z M34.392,119.993 L52.467,119.993 L52.467,119.871 L52.467,108.512 L52.467,107.512 L34.392,107.512 L34.392,101.914 C34.392,94.228 33.111,90.67 30.193,87.112 C27.489,83.767 22.081,81.561 16.886,81.561 C11.691,81.561 6.567,83.696 3.436,87.539 C1.612,89.915 0.001,92.596 0,97.848 C0.002,102.238 1.582,107.832 1.582,113.752 C1.582,119.673 0.002,125.12 0,129.657 C0.002,134.892 1.613,137.589 3.436,139.966 C6.567,143.809 11.691,145.944 16.886,145.944 C22.081,145.944 27.489,143.738 30.193,140.393 C33.111,136.835 34.392,133.277 34.392,125.591 L34.392,119.993 L34.392,119.993 Z M25.242,99.435 C25.242,103.854 21.66,107.436 17.241,107.436 C12.822,107.436 9.24,103.854 9.24,99.435 C9.24,95.016 12.822,91.434 17.241,91.434 C21.66,91.434 25.242,95.016 25.242,99.435 L25.242,99.435 Z M25.242,128.173 C25.242,132.592 21.66,136.174 17.241,136.174 C12.822,136.174 9.24,132.592 9.24,128.173 C9.24,123.754 12.822,120.172 17.241,120.172 C21.66,120.172 25.242,123.754 25.242,128.173 L25.242,128.173 Z" id="Shape" fill="#C43B0D"></path>
            <path d="M450.189,27.91 L450.189,13.948 C437.871,13.948 427.885,23.949 427.885,36.286 L427.885,50.23 L427.885,55.762 L441.829,55.762 L441.829,50.23 L441.829,36.287 L441.825,36.287 C441.825,31.661 445.57,27.91 450.189,27.91 L450.189,27.91 Z M412.851,86.509 L412.851,72.548 C408.231,72.548 404.487,68.797 404.487,64.171 L404.491,64.171 L404.491,50.227 L390.547,50.227 L390.547,64.171 C390.547,76.508 400.533,86.509 412.851,86.509 L412.851,86.509 Z M359.97,50.231 L373.914,50.231 L373.914,36.287 C373.914,23.95 363.929,13.949 351.611,13.949 L351.611,27.91 C356.23,27.91 359.975,31.661 359.975,36.287 L359.97,36.287 L359.97,50.231 L359.97,50.231 Z M351.611,72.552 C346.991,72.552 343.247,68.802 343.247,64.175 L329.307,64.175 C329.307,76.512 339.293,86.514 351.611,86.514 L351.611,72.552 L351.611,72.552 Z M289.625,64.452 L303.569,64.452 L303.569,34.966 L289.625,34.966 L289.625,64.452 L289.625,64.452 Z M261.842,50.231 L275.786,50.231 L275.786,36.287 L275.786,22.343 L275.786,13.949 L261.842,13.949 L261.842,22.343 L261.842,36.287 L261.842,50.231 L261.842,50.231 Z M253.482,86.514 L253.482,72.552 C248.863,72.552 245.119,68.802 245.119,64.175 L231.179,64.175 C231.179,76.512 241.165,86.514 253.482,86.514 L253.482,86.514 Z M219.787,64.175 L219.787,50.231 L205.843,50.231 L205.843,64.175 L205.848,64.175 C205.848,68.802 202.103,72.552 197.484,72.552 L197.484,86.514 C209.802,86.514 219.787,76.512 219.787,64.175 L219.787,64.175 Z M141.778,27.91 L141.778,13.948 C129.46,13.948 119.474,23.949 119.474,36.286 L119.474,50.23 L133.418,50.23 L133.418,36.287 L133.414,36.287 C133.414,31.661 137.158,27.91 141.778,27.91 L141.778,27.91 Z M77.607,84.876 C80.19,85.924 83.008,86.514 85.966,86.514 L85.966,72.552 C81.362,72.552 77.631,68.824 77.607,64.218 L77.607,64.175 L77.603,64.175 L63.663,64.175 L63.663,78.119 L63.663,92.063 L63.663,106.007 L63.663,119.951 L77.607,119.951 L77.607,106.007 L77.607,92.063 L77.607,84.876 L77.607,84.876 Z" id="Shape" fill="#5087A1"></path>
            <path d="M237.44,109.337 L239.095,109.337 L239.095,115.533 C239.095,116.679 239.272,117.496 239.626,117.984 C239.979,118.472 240.588,118.716 241.45,118.716 C241.974,118.716 242.462,118.659 242.915,118.546 C243.367,118.433 243.784,118.284 244.166,118.1 L243.784,116.806 C243.473,116.933 243.19,117.036 242.936,117.114 C242.681,117.192 242.37,117.231 242.002,117.231 C241.564,117.231 241.252,117.079 241.069,116.774 C240.885,116.47 240.793,115.95 240.793,115.215 L240.793,109.337 L243.678,109.337 L243.678,107.852 L240.793,107.852 L240.793,105.263 L239.095,105.751 L239.095,107.852 L237.44,107.852 L237.44,109.337 L237.44,109.337 Z M245.482,115.438 C245.666,116.124 245.949,116.711 246.331,117.199 C246.713,117.687 247.197,118.062 247.784,118.323 C248.371,118.585 249.061,118.716 249.853,118.716 C251.352,118.716 252.502,118.238 253.301,117.284 C254.1,116.329 254.5,114.953 254.5,113.157 C254.5,112.322 254.408,111.562 254.224,110.876 C254.04,110.19 253.757,109.603 253.375,109.115 C252.993,108.627 252.509,108.252 251.922,107.99 C251.335,107.728 250.645,107.597 249.853,107.597 C248.353,107.597 247.204,108.075 246.405,109.03 C245.606,109.985 245.206,111.36 245.206,113.157 C245.206,113.991 245.298,114.752 245.482,115.438 L245.482,115.438 Z M249.853,109.083 C250.376,109.083 250.822,109.192 251.19,109.412 C251.557,109.631 251.854,109.925 252.081,110.292 C252.307,110.66 252.473,111.091 252.579,111.586 C252.686,112.082 252.739,112.605 252.739,113.157 C252.739,115.887 251.776,117.245 249.853,117.231 C249.329,117.231 248.884,117.117 248.516,116.891 C248.148,116.665 247.851,116.368 247.625,116 C247.399,115.632 247.232,115.201 247.126,114.706 C247.02,114.211 246.967,113.694 246.967,113.157 C246.967,110.427 247.929,109.069 249.853,109.083 L249.853,109.083 Z M256.855,115.438 C257.038,116.124 257.322,116.711 257.704,117.199 C258.085,117.687 258.57,118.062 259.157,118.323 C259.744,118.585 260.433,118.716 261.226,118.716 C262.725,118.716 263.874,118.238 264.674,117.284 C265.473,116.329 265.873,114.953 265.873,113.157 C265.873,112.322 265.78,111.562 265.597,110.876 C265.413,110.19 265.13,109.603 264.748,109.115 C264.366,108.627 263.881,108.252 263.295,107.99 C262.707,107.728 262.018,107.597 261.226,107.597 C259.726,107.597 258.577,108.075 257.778,109.03 C256.978,109.985 256.579,111.36 256.579,113.157 C256.579,113.991 256.671,114.752 256.855,115.438 L256.855,115.438 Z M261.226,109.083 C261.749,109.083 262.194,109.192 262.563,109.412 C262.93,109.631 263.227,109.925 263.454,110.292 C263.68,110.66 263.846,111.091 263.952,111.586 C264.058,112.082 264.111,112.605 264.111,113.157 C264.111,115.887 263.149,117.245 261.226,117.231 C260.702,117.231 260.257,117.117 259.889,116.891 C259.521,116.665 259.224,116.368 258.998,116 C258.771,115.632 258.605,115.201 258.499,114.706 C258.393,114.211 258.34,113.694 258.34,113.157 C258.34,110.427 259.302,109.069 261.226,109.083 L261.226,109.083 Z M270.434,103.608 L268.737,103.608 L268.737,116.339 C268.737,117.202 268.942,117.814 269.352,118.175 C269.762,118.535 270.286,118.716 270.922,118.716 C271.219,118.716 271.569,118.68 271.973,118.61 C272.376,118.539 272.69,118.447 272.917,118.334 L272.726,116.997 C272.457,117.096 272.217,117.16 272.004,117.188 C271.792,117.217 271.594,117.231 271.41,117.231 C271.099,117.231 270.859,117.124 270.689,116.912 C270.519,116.7 270.434,116.347 270.434,115.851 L270.434,103.608 L270.434,103.608 Z M278.815,116.87 C278.419,117.11 277.917,117.231 277.309,117.231 C276.771,117.231 276.241,117.153 275.718,116.997 C275.194,116.842 274.77,116.672 274.444,116.488 L273.935,117.931 C274.317,118.143 274.791,118.327 275.357,118.482 C275.922,118.638 276.609,118.716 277.415,118.716 C278.037,118.716 278.578,118.634 279.038,118.472 C279.498,118.309 279.883,118.087 280.195,117.803 C280.505,117.521 280.736,117.181 280.884,116.785 C281.033,116.389 281.107,115.965 281.107,115.512 C281.107,114.875 280.98,114.363 280.725,113.974 C280.47,113.585 280.155,113.263 279.781,113.008 C279.406,112.753 278.996,112.549 278.55,112.393 C278.105,112.237 277.694,112.078 277.319,111.915 C276.944,111.753 276.63,111.569 276.375,111.364 C276.121,111.159 275.993,110.872 275.993,110.504 C275.993,109.981 276.138,109.613 276.428,109.401 C276.718,109.189 277.174,109.083 277.797,109.083 C278.32,109.083 278.812,109.143 279.272,109.263 C279.731,109.383 280.124,109.521 280.449,109.677 L280.852,108.276 C280.47,108.093 280.021,107.934 279.505,107.799 C278.988,107.665 278.349,107.597 277.585,107.597 C276.552,107.597 275.746,107.835 275.166,108.308 C274.586,108.782 274.296,109.528 274.296,110.547 C274.296,111.169 274.423,111.664 274.678,112.032 C274.932,112.4 275.247,112.7 275.622,112.934 C275.997,113.167 276.407,113.358 276.853,113.507 C277.298,113.655 277.708,113.811 278.083,113.974 C278.458,114.136 278.773,114.338 279.028,114.578 C279.282,114.819 279.409,115.151 279.409,115.576 C279.409,116.198 279.211,116.629 278.815,116.87 L278.815,116.87 Z M288.172,109.337 L289.827,109.337 L289.827,118.461 L291.525,118.461 L291.525,109.337 L294.347,109.337 L294.347,107.852 L291.525,107.852 L291.525,107.555 C291.525,107.131 291.535,106.759 291.557,106.441 C291.578,106.123 291.634,105.854 291.726,105.635 C291.818,105.416 291.967,105.25 292.172,105.136 C292.377,105.023 292.663,104.966 293.031,104.966 C293.286,104.966 293.558,104.988 293.848,105.03 C294.138,105.073 294.446,105.165 294.771,105.306 L295.153,103.884 C294.771,103.729 294.407,103.623 294.06,103.566 C293.714,103.51 293.314,103.481 292.862,103.481 C292.296,103.481 291.822,103.555 291.44,103.704 C291.058,103.852 290.747,104.079 290.506,104.383 C290.266,104.687 290.093,105.08 289.986,105.561 C289.88,106.042 289.827,106.608 289.827,107.258 L289.827,107.852 L288.172,107.852 L288.172,109.337 L288.172,109.337 Z M295.556,115.438 C295.74,116.124 296.023,116.711 296.405,117.199 C296.787,117.687 297.271,118.062 297.858,118.323 C298.445,118.585 299.135,118.716 299.927,118.716 C301.426,118.716 302.576,118.238 303.375,117.284 C304.174,116.329 304.574,114.953 304.574,113.157 C304.574,112.322 304.482,111.562 304.298,110.876 C304.114,110.19 303.831,109.603 303.449,109.115 C303.067,108.627 302.583,108.252 301.996,107.99 C301.409,107.728 300.719,107.597 299.927,107.597 C298.428,107.597 297.278,108.075 296.479,109.03 C295.68,109.985 295.28,111.36 295.28,113.157 C295.28,113.991 295.372,114.752 295.556,115.438 L295.556,115.438 Z M299.927,109.083 C300.45,109.083 300.896,109.192 301.264,109.412 C301.632,109.631 301.929,109.925 302.155,110.292 C302.381,110.66 302.548,111.091 302.654,111.586 C302.76,112.082 302.813,112.605 302.813,113.157 C302.813,115.887 301.851,117.245 299.927,117.231 C299.404,117.231 298.958,117.117 298.59,116.891 C298.222,116.665 297.925,116.368 297.699,116 C297.473,115.632 297.307,115.201 297.201,114.706 C297.094,114.211 297.041,113.694 297.041,113.157 C297.041,110.427 298.003,109.069 299.927,109.083 L299.927,109.083 Z M312.615,107.852 C312.106,107.711 311.646,107.64 311.236,107.64 C310.656,107.64 310.179,107.771 309.804,108.032 C309.429,108.294 309.107,108.666 308.839,109.146 L308.754,109.146 L308.435,107.852 L307.247,107.852 L307.247,118.461 L308.945,118.461 L308.945,111.035 C309.03,110.526 309.249,110.105 309.602,109.772 C309.956,109.44 310.437,109.274 311.045,109.274 C311.427,109.274 311.83,109.345 312.255,109.486 L312.615,107.852 L312.615,107.852 Z M326.81,116.467 C326.556,116.665 326.227,116.842 325.824,116.997 C325.421,117.153 324.964,117.231 324.455,117.231 C323.861,117.231 323.362,117.117 322.959,116.891 C322.556,116.665 322.23,116.364 321.983,115.989 C321.735,115.615 321.559,115.183 321.453,114.695 C321.347,114.207 321.294,113.694 321.294,113.157 C321.294,110.441 322.298,109.083 324.307,109.083 C324.759,109.083 325.183,109.136 325.58,109.242 C325.975,109.348 326.336,109.493 326.662,109.677 L327.15,108.213 C326.768,108.015 326.34,107.863 325.866,107.757 C325.392,107.651 324.816,107.597 324.137,107.597 C322.652,107.597 321.513,108.075 320.721,109.03 C319.928,109.985 319.532,111.36 319.532,113.157 C319.532,113.991 319.614,114.752 319.776,115.438 C319.939,116.124 320.201,116.711 320.562,117.199 C320.922,117.687 321.385,118.062 321.951,118.323 C322.517,118.585 323.21,118.716 324.031,118.716 C324.667,118.716 325.275,118.634 325.855,118.472 C326.435,118.309 326.938,118.072 327.362,117.761 L326.81,116.467 L326.81,116.467 Z M330.056,118.461 L331.754,118.461 L331.754,107.852 L330.056,107.852 L330.056,118.461 L330.056,118.461 Z M330.025,105.433 C330.244,105.645 330.523,105.751 330.863,105.751 C331.202,105.751 331.492,105.645 331.733,105.433 C331.973,105.221 332.093,104.952 332.093,104.627 C332.093,104.302 331.973,104.022 331.733,103.789 C331.492,103.555 331.202,103.439 330.863,103.439 C330.523,103.439 330.244,103.555 330.025,103.789 C329.805,104.022 329.696,104.302 329.696,104.627 C329.696,104.952 329.805,105.221 330.025,105.433 L330.025,105.433 Z M335.891,107.852 L333.939,107.852 L338.543,118.695 L339.265,118.695 L343.784,107.852 L341.96,107.852 L339.583,114.027 L339.053,116.085 L339.031,116.085 L338.437,114.069 L335.891,107.852 L335.891,107.852 Z M345.97,118.461 L347.667,118.461 L347.667,107.852 L345.97,107.852 L345.97,118.461 L345.97,118.461 Z M345.938,105.433 C346.157,105.645 346.436,105.751 346.776,105.751 C347.115,105.751 347.405,105.645 347.646,105.433 C347.886,105.221 348.007,104.952 348.007,104.627 C348.007,104.302 347.886,104.022 347.646,103.789 C347.405,103.555 347.115,103.439 346.776,103.439 C346.436,103.439 346.157,103.555 345.938,103.789 C345.718,104.022 345.609,104.302 345.609,104.627 C345.609,104.952 345.718,105.221 345.938,105.433 L345.938,105.433 Z M357.979,116.467 C357.724,116.665 357.395,116.842 356.992,116.997 C356.589,117.153 356.133,117.231 355.624,117.231 C355.03,117.231 354.531,117.117 354.128,116.891 C353.725,116.665 353.399,116.364 353.152,115.989 C352.904,115.615 352.727,115.183 352.621,114.695 C352.515,114.207 352.462,113.694 352.462,113.157 C352.462,110.441 353.466,109.083 355.475,109.083 C355.928,109.083 356.352,109.136 356.748,109.242 C357.144,109.348 357.505,109.493 357.83,109.677 L358.318,108.213 C357.936,108.015 357.508,107.863 357.035,107.757 C356.561,107.651 355.984,107.597 355.305,107.597 C353.82,107.597 352.681,108.075 351.889,109.03 C351.097,109.985 350.701,111.36 350.701,113.157 C350.701,113.991 350.782,114.752 350.945,115.438 C351.108,116.124 351.369,116.711 351.73,117.199 C352.091,117.687 352.554,118.062 353.12,118.323 C353.686,118.585 354.379,118.716 355.199,118.716 C355.836,118.716 356.444,118.634 357.024,118.472 C357.604,118.309 358.106,118.072 358.531,117.761 L357.979,116.467 L357.979,116.467 Z M373.129,116.382 C372.888,116.608 372.527,116.806 372.047,116.976 C371.565,117.146 371.084,117.231 370.604,117.231 C369.981,117.231 369.454,117.142 369.023,116.965 C368.591,116.789 368.241,116.534 367.973,116.201 C367.704,115.869 367.506,115.462 367.379,114.981 C367.251,114.501 367.188,113.949 367.188,113.326 L373.999,113.326 C374.084,112.761 374.126,112.244 374.126,111.777 C374.126,110.886 374.006,110.169 373.765,109.624 C373.525,109.079 373.214,108.658 372.832,108.361 C372.45,108.064 372.018,107.863 371.537,107.757 C371.056,107.651 370.575,107.597 370.094,107.597 C368.595,107.597 367.442,108.072 366.636,109.019 C365.83,109.967 365.426,111.346 365.426,113.157 C365.426,114.005 365.518,114.769 365.702,115.448 C365.886,116.127 366.169,116.711 366.551,117.199 C366.933,117.687 367.421,118.062 368.015,118.323 C368.609,118.585 369.309,118.716 370.116,118.716 C370.837,118.716 371.519,118.617 372.163,118.419 C372.807,118.221 373.341,117.952 373.765,117.612 L373.129,116.382 L373.129,116.382 Z M371.856,109.73 C372.266,110.162 372.471,110.915 372.471,111.99 L367.209,111.99 C367.308,110.929 367.608,110.179 368.111,109.741 C368.613,109.302 369.281,109.083 370.116,109.083 C370.865,109.083 371.445,109.299 371.856,109.73 L371.856,109.73 Z M385.308,118.461 L385.308,112.053 C385.308,111.176 385.234,110.451 385.085,109.878 C384.936,109.306 384.717,108.849 384.427,108.51 C384.137,108.17 383.773,107.934 383.335,107.799 C382.896,107.665 382.387,107.597 381.807,107.597 C381.014,107.597 380.332,107.743 379.759,108.032 C379.186,108.323 378.73,108.694 378.391,109.146 L378.306,109.146 L377.988,107.852 L376.799,107.852 L376.799,118.461 L378.497,118.461 L378.497,111.205 C378.695,110.597 379.038,110.091 379.526,109.687 C380.014,109.284 380.633,109.083 381.382,109.083 C382.231,109.083 382.815,109.362 383.133,109.921 C383.451,110.48 383.61,111.311 383.61,112.414 L383.61,118.461 L385.308,118.461 L385.308,118.461 Z M396.532,108.298 C396.079,108.128 395.567,107.979 394.994,107.852 C394.421,107.725 393.731,107.661 392.925,107.661 C391.242,107.661 389.968,108.132 389.106,109.072 C388.243,110.013 387.811,111.389 387.811,113.199 C387.811,115.081 388.147,116.467 388.819,117.358 C389.491,118.249 390.541,118.695 391.97,118.695 C392.677,118.695 393.25,118.585 393.689,118.366 C394.127,118.147 394.488,117.832 394.771,117.421 L394.856,117.421 L394.856,118.44 C394.856,118.977 394.813,119.441 394.729,119.83 C394.644,120.219 394.488,120.537 394.262,120.785 C394.035,121.032 393.735,121.209 393.36,121.315 C392.985,121.421 392.501,121.474 391.907,121.474 C391.27,121.474 390.754,121.417 390.358,121.304 C389.961,121.191 389.601,121.071 389.276,120.944 L388.83,122.387 C389.198,122.556 389.64,122.694 390.156,122.8 C390.672,122.906 391.355,122.959 392.204,122.959 C393.632,122.959 394.711,122.634 395.439,121.983 C396.168,121.333 396.532,120.321 396.532,118.949 L396.532,108.298 L396.532,108.298 Z M391.015,116.912 C390.676,116.714 390.4,116.438 390.188,116.085 C389.976,115.731 389.82,115.307 389.721,114.812 C389.622,114.317 389.573,113.772 389.573,113.178 C389.573,111.792 389.848,110.773 390.4,110.122 C390.952,109.472 391.708,109.146 392.67,109.146 C393.547,109.146 394.269,109.281 394.835,109.55 L394.835,114.981 C394.665,115.745 394.375,116.308 393.965,116.668 C393.554,117.029 392.989,117.209 392.267,117.209 C391.772,117.209 391.355,117.11 391.015,116.912 L391.015,116.912 Z M400.16,109.931 C400.358,109.815 400.588,109.71 400.85,109.615 C401.111,109.521 401.387,109.441 401.677,109.375 C401.967,109.31 402.25,109.259 402.526,109.222 C402.802,109.186 403.06,109.168 403.3,109.168 C404.121,109.168 404.687,109.323 404.998,109.634 C405.309,109.946 405.465,110.49 405.465,111.268 C405.465,111.608 405.444,111.99 405.401,112.414 C405.203,112.386 405.009,112.372 404.818,112.372 C404.627,112.372 404.432,112.372 404.234,112.372 C403.456,112.372 402.745,112.425 402.102,112.531 C401.458,112.637 400.906,112.814 400.447,113.061 C399.987,113.309 399.63,113.641 399.375,114.058 C399.121,114.476 398.993,114.996 398.993,115.618 C398.993,116.085 399.074,116.502 399.237,116.87 C399.4,117.238 399.622,117.552 399.906,117.814 C400.188,118.076 400.524,118.278 400.913,118.419 C401.302,118.56 401.723,118.631 402.176,118.631 C402.628,118.631 403.032,118.581 403.385,118.482 C403.739,118.384 404.05,118.26 404.319,118.111 C404.588,117.963 404.818,117.793 405.009,117.602 C405.2,117.411 405.359,117.217 405.486,117.018 L405.592,117.018 L406.038,118.504 L407.289,118.504 C407.176,118.108 407.099,117.676 407.056,117.209 C407.014,116.742 406.992,116.248 406.992,115.724 C406.992,115.003 407.014,114.239 407.056,113.432 C407.099,112.626 407.12,111.799 407.12,110.95 C407.12,110.568 407.081,110.186 407.003,109.804 C406.925,109.422 406.77,109.072 406.536,108.754 C406.303,108.436 405.963,108.178 405.518,107.979 C405.072,107.781 404.481,107.682 403.746,107.682 C402.968,107.682 402.222,107.76 401.508,107.916 C400.793,108.072 400.167,108.312 399.63,108.637 L400.16,109.931 L400.16,109.931 Z M401.285,116.668 C400.931,116.35 400.754,115.944 400.754,115.448 C400.754,115.095 400.85,114.801 401.041,114.568 C401.232,114.334 401.486,114.151 401.805,114.016 C402.123,113.882 402.491,113.79 402.908,113.74 C403.325,113.691 403.753,113.666 404.192,113.666 C404.39,113.666 404.591,113.67 404.796,113.676 C405.001,113.684 405.203,113.694 405.401,113.708 L405.401,115.469 C405.33,115.653 405.221,115.844 405.072,116.042 C404.924,116.241 404.736,116.421 404.51,116.583 C404.283,116.746 404.015,116.88 403.704,116.987 C403.392,117.093 403.039,117.146 402.643,117.146 C402.091,117.146 401.638,116.987 401.285,116.668 L401.285,116.668 Z M418.45,108.298 C417.997,108.128 417.485,107.979 416.912,107.852 C416.339,107.725 415.649,107.661 414.843,107.661 C413.159,107.661 411.886,108.132 411.024,109.072 C410.161,110.013 409.729,111.389 409.729,113.199 C409.729,115.081 410.065,116.467 410.737,117.358 C411.409,118.249 412.459,118.695 413.888,118.695 C414.595,118.695 415.168,118.585 415.607,118.366 C416.045,118.147 416.406,117.832 416.689,117.421 L416.774,117.421 L416.774,118.44 C416.774,118.977 416.731,119.441 416.646,119.83 C416.562,120.219 416.406,120.537 416.18,120.785 C415.953,121.032 415.653,121.209 415.278,121.315 C414.903,121.421 414.418,121.474 413.824,121.474 C413.188,121.474 412.671,121.417 412.275,121.304 C411.879,121.191 411.519,121.071 411.193,120.944 L410.748,122.387 C411.115,122.556 411.557,122.694 412.074,122.8 C412.59,122.906 413.273,122.959 414.121,122.959 C415.55,122.959 416.629,122.634 417.357,121.983 C418.086,121.333 418.45,120.321 418.45,118.949 L418.45,108.298 L418.45,108.298 Z M412.933,116.912 C412.594,116.714 412.318,116.438 412.106,116.085 C411.894,115.731 411.738,115.307 411.639,114.812 C411.54,114.317 411.49,113.772 411.49,113.178 C411.49,111.792 411.766,110.773 412.318,110.122 C412.87,109.472 413.626,109.146 414.588,109.146 C415.465,109.146 416.187,109.281 416.753,109.55 L416.753,114.981 C416.583,115.745 416.293,116.308 415.883,116.668 C415.472,117.029 414.907,117.209 414.185,117.209 C413.69,117.209 413.273,117.11 412.933,116.912 L412.933,116.912 Z M428.825,116.382 C428.585,116.608 428.224,116.806 427.743,116.976 C427.262,117.146 426.781,117.231 426.3,117.231 C425.678,117.231 425.151,117.142 424.72,116.965 C424.288,116.789 423.938,116.534 423.669,116.201 C423.4,115.869 423.203,115.462 423.075,114.981 C422.948,114.501 422.884,113.949 422.884,113.326 L429.695,113.326 C429.78,112.761 429.823,112.244 429.823,111.777 C429.823,110.886 429.702,110.169 429.462,109.624 C429.221,109.079 428.91,108.658 428.528,108.361 C428.146,108.064 427.715,107.863 427.234,107.757 C426.753,107.651 426.272,107.597 425.791,107.597 C424.292,107.597 423.139,108.072 422.333,109.019 C421.526,109.967 421.123,111.346 421.123,113.157 C421.123,114.005 421.215,114.769 421.399,115.448 C421.583,116.127 421.866,116.711 422.248,117.199 C422.63,117.687 423.118,118.062 423.712,118.323 C424.306,118.585 425.006,118.716 425.812,118.716 C426.534,118.716 427.216,118.617 427.86,118.419 C428.503,118.221 429.038,117.952 429.462,117.612 L428.825,116.382 L428.825,116.382 Z M427.552,109.73 C427.962,110.162 428.168,110.915 428.168,111.99 L422.905,111.99 C423.004,110.929 423.305,110.179 423.807,109.741 C424.309,109.302 424.978,109.083 425.812,109.083 C426.562,109.083 427.142,109.299 427.552,109.73 L427.552,109.73 Z M440.41,118.461 L440.41,111.374 C440.58,110.639 440.863,110.073 441.259,109.677 C441.655,109.281 442.207,109.083 442.914,109.083 C443.339,109.083 443.681,109.143 443.943,109.263 C444.205,109.383 444.41,109.567 444.559,109.815 C444.707,110.062 444.806,110.374 444.856,110.748 C444.905,111.123 444.93,111.565 444.93,112.075 L444.93,118.461 L446.627,118.461 L446.627,112.096 C446.627,111.205 446.567,110.469 446.447,109.889 C446.327,109.309 446.132,108.849 445.864,108.51 C445.595,108.17 445.255,107.934 444.845,107.799 C444.435,107.665 443.933,107.597 443.339,107.597 C442.617,107.597 441.97,107.753 441.397,108.064 C440.824,108.376 440.375,108.807 440.05,109.359 C439.809,108.708 439.473,108.252 439.042,107.99 C438.61,107.728 438.055,107.597 437.376,107.597 C436.57,107.597 435.916,107.743 435.414,108.032 C434.911,108.323 434.469,108.694 434.087,109.146 L434.003,109.146 L433.684,107.852 L432.496,107.852 L432.496,118.461 L434.193,118.461 L434.193,111.162 C434.363,110.568 434.664,110.073 435.095,109.677 C435.527,109.281 436.068,109.083 436.718,109.083 C437.143,109.083 437.486,109.154 437.748,109.295 C438.009,109.436 438.211,109.649 438.352,109.931 C438.493,110.215 438.589,110.565 438.639,110.982 C438.688,111.399 438.713,111.891 438.713,112.456 L438.713,118.461 L440.41,118.461 L440.41,118.461 Z M456.833,116.382 C456.593,116.608 456.232,116.806 455.751,116.976 C455.27,117.146 454.789,117.231 454.308,117.231 C453.686,117.231 453.159,117.142 452.727,116.965 C452.296,116.789 451.946,116.534 451.677,116.201 C451.408,115.869 451.21,115.462 451.083,114.981 C450.956,114.501 450.892,113.949 450.892,113.326 L457.703,113.326 C457.788,112.761 457.83,112.244 457.83,111.777 C457.83,110.886 457.71,110.169 457.47,109.624 C457.229,109.079 456.918,108.658 456.536,108.361 C456.154,108.064 455.723,107.863 455.242,107.757 C454.761,107.651 454.28,107.597 453.799,107.597 C452.299,107.597 451.147,108.072 450.34,109.019 C449.534,109.967 449.131,111.346 449.131,113.157 C449.131,114.005 449.223,114.769 449.407,115.448 C449.59,116.127 449.874,116.711 450.256,117.199 C450.637,117.687 451.126,118.062 451.72,118.323 C452.314,118.585 453.014,118.716 453.82,118.716 C454.542,118.716 455.224,118.617 455.868,118.419 C456.511,118.221 457.045,117.952 457.47,117.612 L456.833,116.382 L456.833,116.382 Z M455.56,109.73 C455.97,110.162 456.175,110.915 456.175,111.99 L450.913,111.99 C451.012,110.929 451.313,110.179 451.815,109.741 C452.317,109.302 452.985,109.083 453.82,109.083 C454.57,109.083 455.15,109.299 455.56,109.73 L455.56,109.73 Z M469.012,118.461 L469.012,112.053 C469.012,111.176 468.938,110.451 468.79,109.878 C468.641,109.306 468.422,108.849 468.132,108.51 C467.842,108.17 467.477,107.934 467.039,107.799 C466.6,107.665 466.091,107.597 465.511,107.597 C464.719,107.597 464.037,107.743 463.464,108.032 C462.891,108.323 462.435,108.694 462.095,109.146 L462.01,109.146 L461.692,107.852 L460.504,107.852 L460.504,118.461 L462.201,118.461 L462.201,111.205 C462.399,110.597 462.742,110.091 463.23,109.687 C463.718,109.284 464.337,109.083 465.087,109.083 C465.936,109.083 466.519,109.362 466.837,109.921 C467.156,110.48 467.315,111.311 467.315,112.414 L467.315,118.461 L469.012,118.461 L469.012,118.461 Z M470.71,109.337 L472.365,109.337 L472.365,115.533 C472.365,116.679 472.541,117.496 472.895,117.984 C473.249,118.472 473.857,118.716 474.72,118.716 C475.243,118.716 475.731,118.659 476.184,118.546 C476.637,118.433 477.054,118.284 477.436,118.1 L477.054,116.806 C476.743,116.933 476.46,117.036 476.205,117.114 C475.951,117.192 475.639,117.231 475.272,117.231 C474.833,117.231 474.522,117.079 474.338,116.774 C474.154,116.47 474.062,115.95 474.062,115.215 L474.062,109.337 L476.948,109.337 L476.948,107.852 L474.062,107.852 L474.062,105.263 L472.365,105.751 L472.365,107.852 L470.71,107.852 L470.71,109.337 L470.71,109.337 Z" id="Shape" fill="#565141"></path>
        </g>
    </g>
</svg>