<?xml version="1.0" encoding="UTF-8"?>
<svg width="1398px" height="539px" viewBox="0 0 1398 539" version="1.1" xmlns="http://www.w3.org/2000/svg" xmlns:xlink="http://www.w3.org/1999/xlink">
    <!-- Generator: Sketch 53.2 (72643) - https://sketchapp.com -->
    <title>virgu copy 3</title>
    <desc>Created with Sketch.</desc>
    <g id="Page-1" stroke="none" stroke-width="1" fill="none" fill-rule="evenodd" opacity="0.59984189">
        <g id="Gobierto-Contratos-Proto-v2" transform="translate(-17.000000, -884.000000)">
            <g id="Group-12" transform="translate(0.000000, 858.000000)">
                <g id="virgu-copy-3" transform="translate(17.000000, 26.000000)">
                    <path d="M1390.64507,367 C1391.14163,372.894777 1393.49757,375.601256 1397.71289,375.119438 C1393.24471,375.282651 1391.01062,378.152344 1391.01062,383.728516 C1390.76692,378.152344 1388.43005,375.282651 1384,375.119438 C1388.55214,375.648103 1390.76717,372.941624 1390.64507,367 Z" id="Polygon-Copy-13" fill="#FFFFFF"></path>
                    <path d="M21.9938361,421.200001 C22.3455517,424.980504 24.014273,426.716253 27,426.407248 C23.8351691,426.511922 22.2527537,428.352345 22.2527537,431.928516 C22.080142,428.352345 20.4249272,426.511922 17.2871094,426.407248 C20.5114094,426.746297 22.0803184,425.010548 21.9938361,421.200001 Z" id="Polygon-Copy-12" fill="#FFFFFF"></path>
                    <path d="M19.6450691,203 C20.1416296,209.599535 22.4975701,212.629591 26.7128906,212.090169 C22.2447069,212.272895 20.0106151,215.485677 20.0106151,221.728516 C19.7669178,215.485677 17.4300461,212.272895 13,212.090169 C17.5521437,212.682039 19.7671668,209.651983 19.6450691,203 Z" id="Polygon-Copy-11" fill="#FFFFFF"></path>
                    <g id="Group-10-Copy" transform="translate(1159.000000, 15.000000)" stroke="#FFFFFF" stroke-width="2">
                        <path d="M2.41421356,7 L7,11.5857864 L7,7 L2.41421356,7 Z" id="Rectangle" transform="translate(4.000000, 10.000000) rotate(-90.000000) translate(-4.000000, -10.000000) "></path>
                        <path d="M8.41421356,1 L13,5.58578644 L13,1 L8.41421356,1 Z" id="Rectangle-Copy-11" transform="translate(10.000000, 4.000000) rotate(-90.000000) translate(-10.000000, -4.000000) "></path>
                    </g>
                    <g id="Group-10-Copy-9" transform="translate(397.000000, 7.000000) rotate(-90.000000) translate(-397.000000, -7.000000) translate(390.000000, 0.000000)" stroke="#FFFFFF" stroke-width="2">
                        <path d="M2.41421356,7 L7,11.5857864 L7,7 L2.41421356,7 Z" id="Rectangle" transform="translate(4.000000, 10.000000) rotate(-90.000000) translate(-4.000000, -10.000000) "></path>
                        <path d="M8.41421356,1 L13,5.58578644 L13,1 L8.41421356,1 Z" id="Rectangle-Copy-11" transform="translate(10.000000, 4.000000) rotate(-90.000000) translate(-10.000000, -4.000000) "></path>
                    </g>
                    <g id="Group-10-Copy-10" transform="translate(7.000000, 532.000000) rotate(-90.000000) translate(-7.000000, -532.000000) translate(0.000000, 525.000000)" stroke="#FFFFFF" stroke-width="2">
                        <path d="M2.41421356,7 L7,11.5857864 L7,7 L2.41421356,7 Z" id="Rectangle" transform="translate(4.000000, 10.000000) rotate(-90.000000) translate(-4.000000, -10.000000) "></path>
                        <path d="M8.41421356,1 L13,5.58578644 L13,1 L8.41421356,1 Z" id="Rectangle-Copy-11" transform="translate(10.000000, 4.000000) rotate(-90.000000) translate(-10.000000, -4.000000) "></path>
                    </g>
                    <g id="Group-10-Copy-8" transform="translate(193.000000, 111.000000) rotate(-270.000000) translate(-193.000000, -111.000000) translate(186.000000, 104.000000)" stroke="#FFFFFF" stroke-width="2">
                        <path d="M2.41421356,7 L7,11.5857864 L7,7 L2.41421356,7 Z" id="Rectangle" transform="translate(4.000000, 10.000000) rotate(-90.000000) translate(-4.000000, -10.000000) "></path>
                        <path d="M8.41421356,1 L13,5.58578644 L13,1 L8.41421356,1 Z" id="Rectangle-Copy-11" transform="translate(10.000000, 4.000000) rotate(-90.000000) translate(-10.000000, -4.000000) "></path>
                    </g>
                    <g id="Group-10-Copy-7" transform="translate(1390.000000, 93.000000) rotate(-270.000000) translate(-1390.000000, -93.000000) translate(1383.000000, 86.000000)" stroke="#FFFFFF" stroke-width="2">
                        <path d="M2.41421356,7 L7,11.5857864 L7,7 L2.41421356,7 Z" id="Rectangle" transform="translate(4.000000, 10.000000) rotate(-90.000000) translate(-4.000000, -10.000000) "></path>
                        <path d="M8.41421356,1 L13,5.58578644 L13,1 L8.41421356,1 Z" id="Rectangle-Copy-11" transform="translate(10.000000, 4.000000) rotate(-90.000000) translate(-10.000000, -4.000000) "></path>
                    </g>
                    <g id="Group-10-Copy-6" transform="translate(674.000000, 26.000000) rotate(-270.000000) translate(-674.000000, -26.000000) translate(667.000000, 19.000000)" stroke="#FFFFFF" stroke-width="2">
                        <path d="M2.41421356,7 L7,11.5857864 L7,7 L2.41421356,7 Z" id="Rectangle" transform="translate(4.000000, 10.000000) rotate(-90.000000) translate(-4.000000, -10.000000) "></path>
                        <path d="M8.41421356,1 L13,5.58578644 L13,1 L8.41421356,1 Z" id="Rectangle-Copy-11" transform="translate(10.000000, 4.000000) rotate(-90.000000) translate(-10.000000, -4.000000) "></path>
                    </g>
                    <circle id="Oval-Copy-11" stroke="#F9F9F9" stroke-width="1.5999999" cx="914.5" cy="15.5" r="4.70000005"></circle>
                    <circle id="Oval-Copy-10" stroke="#F9F9F9" stroke-width="2" cx="52" cy="72" r="4"></circle>
                    <circle id="Oval-Copy-9" stroke="#F9F9F9" stroke-width="2" cx="1365" cy="233" r="4"></circle>
                    <rect id="Rectangle-Copy-27" stroke="#F9F9F9" stroke-width="2" transform="translate(145.000000, 18.000000) rotate(-315.000000) translate(-145.000000, -18.000000) " x="140" y="13" width="10" height="10"></rect>
                    <rect id="Rectangle-Copy-28" stroke="#F9F9F9" stroke-width="2" transform="translate(1377.485281, 488.485281) rotate(-315.000000) translate(-1377.485281, -488.485281) " x="1372.48528" y="483.485281" width="10" height="10"></rect>
                    <rect id="Rectangle-Copy-26" stroke="#F9F9F9" stroke-width="2" transform="translate(45.485281, 310.485281) rotate(-315.000000) translate(-45.485281, -310.485281) " x="40.4852814" y="305.485281" width="10" height="10"></rect>
                </g>
            </g>
        </g>
    </g>
</svg>