<svg width="37" height="32" viewBox="0 0 37 32" fill="none" xmlns="http://www.w3.org/2000/svg">
<path d="M3.5117 4.50446C5.652 2.51366 8.68684 1.49026 11.6075 1.26625C13.2168 1.14246 15.0457 1.01659 16.47 1.77495C17.4793 2.31199 18.5938 1.90806 19.5799 2.30027C21.7829 3.17616 24.2689 3.04584 26.5578 4.04705C27.7965 4.58911 30.458 5.56605 30.9061 7.19854C31.309 8.66855 29.8709 9.82134 29.6488 11.134C29.3133 13.1221 32.5067 16.3174 33.6782 17.715C35.5522 19.952 36.0045 22.13 36.1369 24.9679C36.2509 27.4012 35.1752 29.2055 33.0628 30.1955C30.28 31.5005 28.5606 30.9319 26.1306 29.2267C24.4028 28.0142 22.1274 25.023 19.8698 25.2665C16.4444 25.6353 13.2523 27.8271 9.7618 27.6715C4.62277 27.442 -1.36512 23.5432 2.40358 18.1462C4.73811 14.8029 3.64088 12.5214 2.4289 8.74151C1.78088 6.72067 1.9497 5.95716 3.5117 4.50446Z" fill="#F4486D" stroke="#F4486D"/>
</svg>
