<svg width="69" height="57" viewBox="0 0 69 57" fill="none" xmlns="http://www.w3.org/2000/svg">
<path d="M10.172 10.3395C13.4686 7.27319 18.143 5.69689 22.6416 5.35186C25.1203 5.16119 27.9373 4.96732 30.1311 6.13538C31.6857 6.96256 33.4023 6.34041 34.9211 6.94451C38.3143 8.29361 42.1434 8.09288 45.669 9.63501C47.5769 10.4699 51.6762 11.9746 52.3664 14.4891C52.9869 16.7533 50.7719 18.5289 50.4299 20.5507C49.9131 23.6129 54.8318 28.5345 56.6362 30.6872C59.5227 34.1327 60.2193 37.4874 60.4232 41.8584C60.5988 45.6063 58.942 48.3855 55.6883 49.9103C51.402 51.9203 48.7537 51.0446 45.011 48.4181C42.3496 46.5506 38.845 41.9434 35.3676 42.3184C30.0916 42.8864 25.175 46.2625 19.7987 46.0228C11.8833 45.6692 2.66043 39.6641 8.4652 31.3514C12.061 26.2018 10.371 22.6878 8.5042 16.8657C7.50607 13.7531 7.7661 12.5771 10.172 10.3395Z" fill="#F4486D"/>
</svg>
